<?xml version="1.0" encoding="utf-8"?>
<!-- Generator: Adobe Illustrator 26.1.0, SVG Export Plug-In . SVG Version: 6.00 Build 0)  -->
<svg version="1.1" xmlns="http://www.w3.org/2000/svg" xmlns:xlink="http://www.w3.org/1999/xlink" x="0px" y="0px"
	 viewBox="0 0 100 100" style="enable-background:new 0 0 100 100;" xml:space="preserve">
<style type="text/css">
	.st0{display:none;}
	.st1{display:inline;}
	.st2{fill-rule:evenodd;clip-rule:evenodd;}
</style>
<g id="pro" class="st0">
	<g id="_x31_" class="st1">
		<g>
			<path d="M50,4c25.4,0,46,20.7,46,46S75.4,96,50,96C24.6,96,4,75.4,4,50S24.6,4,50,4 M50,0C22.4,0,0,22.4,0,50
				c0,27.6,22.4,50,50,50c27.6,0,50-22.4,50-50C100,22.4,77.6,0,50,0L50,0z"/>
		</g>
		<g>
			<g>
				<path d="M20.3,48.7c-1.6,0-3-1.3-3-3V32.7c0-1.6,1.3-3,3-3c1.6,0,3,1.3,3,3v13.1C23.3,47.4,22,48.7,20.3,48.7z"/>
			</g>
			<g>
				<path d="M20.3,70.3c-1.6,0-3-1.3-3-3V54.3c0-1.6,1.3-3,3-3c1.6,0,3,1.3,3,3v13.1C23.3,69,22,70.3,20.3,70.3z"/>
			</g>
			<g>
				<path d="M50.1,48.7c-1.6,0-3-1.3-3-3v-7.6c0-1.4-1.1-2.5-2.5-2.5h-7.9c-1.4,0-2.5,1.1-2.5,2.5v7.6c0,1.6-1.3,3-3,3
					c-1.6,0-3-1.3-3-3v-7.6c0-4.6,3.8-8.4,8.4-8.4h7.9c4.6,0,8.4,3.8,8.4,8.4v7.6C53,47.4,51.7,48.7,50.1,48.7z"/>
			</g>
			<g>
				<path d="M44.6,70.3h-7.9c-4.6,0-8.4-3.8-8.4-8.4v-7.6c0-1.6,1.3-3,3-3c1.6,0,3,1.3,3,3v7.6c0,1.4,1.1,2.5,2.5,2.5h7.9
					c1.4,0,2.5-1.1,2.5-2.5v-7.6c0-1.6,1.3-3,3-3c1.6,0,3,1.3,3,3v7.6C53,66.5,49.3,70.3,44.6,70.3z"/>
			</g>
			<g>
				<path d="M79.7,48.7c-1.6,0-3-1.3-3-3v-7.6c0-1.4-1.1-2.5-2.5-2.5h-7.9c-1.4,0-2.5,1.1-2.5,2.5v7.6c0,1.6-1.3,3-3,3s-3-1.3-3-3
					v-7.6c0-4.6,3.8-8.4,8.4-8.4h7.9c4.6,0,8.4,3.8,8.4,8.4v7.6C82.6,47.4,81.3,48.7,79.7,48.7z"/>
			</g>
			<g>
				<path d="M74.2,70.3h-7.9c-4.6,0-8.4-3.8-8.4-8.4v-7.6c0-1.6,1.3-3,3-3s3,1.3,3,3v7.6c0,1.4,1.1,2.5,2.5,2.5h7.9
					c1.4,0,2.5-1.1,2.5-2.5v-7.6c0-1.6,1.3-3,3-3s3,1.3,3,3v7.6C82.6,66.5,78.9,70.3,74.2,70.3z"/>
			</g>
		</g>
	</g>
	<g id="_x32_" class="st1">
		<g>
			<path d="M50,4c25.4,0,46,20.7,46,46S75.4,96,50,96S4,75.4,4,50S24.6,4,50,4 M50,0C22.4,0,0,22.4,0,50c0,27.6,22.4,50,50,50
				s50-22.4,50-50C100,22.4,77.6,0,50,0L50,0z"/>
		</g>
		<g>
			<g>
				<path class="st2" d="M33.2,83.3c-1.1-0.7-1.6-2.1-1.1-3.4l8-21.2l-12.4,1c-1.2,0.1-2.3-0.5-2.8-1.6c-0.5-1-0.3-2.3,0.5-3.1
					l35.4-38c0.9-1,2.3-1.2,3.5-0.5c1.1,0.7,1.7,2,1.3,3.3L59,41.2l13.3-1.1c1.2-0.1,2.3,0.6,2.8,1.6c0.5,1.1,0.3,2.3-0.6,3.2
					L36.7,83C35.8,83.9,34.3,84.1,33.2,83.3L33.2,83.3z M65.2,46.4l-9.8,0.8c-0.9,0.1-1.8-0.3-2.4-1c-0.6-0.7-0.8-1.7-0.5-2.6
					l4.2-13.7L34.5,53.6l9.6-0.8c1-0.1,1.9,0.3,2.5,1.1c0.6,0.8,0.7,1.8,0.4,2.7l-4.9,13L65.2,46.4z"/>
			</g>
		</g>
	</g>
	<g id="_x33_" class="st1">
		<g>
			<g>
				<path class="st2" d="M44.6,50c0-3,2.4-5.4,5.4-5.4c3,0,5.4,2.4,5.4,5.4c0,3-2.4,5.4-5.4,5.4C47,55.4,44.6,53,44.6,50z"/>
			</g>
			<g>
				<path class="st2" d="M33.8,50c0-9,7.3-16.2,16.2-16.2c9,0,16.2,7.3,16.2,16.2c0,9-7.3,16.2-16.2,16.2C41,66.2,33.8,58.9,33.8,50
					z M50,39.2c-6,0-10.8,4.8-10.8,10.8c0,6,4.8,10.8,10.8,10.8c6,0,10.8-4.8,10.8-10.8C60.8,44,56,39.2,50,39.2z"/>
			</g>
			<g>
				<path class="st2" d="M60.5,69.2c1.5,0,2.7,1.2,2.7,2.7v0c0,1.5-1.2,2.7-2.7,2.7c-1.5,0-2.7-1.2-2.7-2.7v0
					C57.8,70.4,59.1,69.2,60.5,69.2z"/>
			</g>
			<g>
				<path class="st2" d="M69,62.4c1.5,0,2.7,1.2,2.7,2.7v0c0,1.5-1.2,2.7-2.7,2.7c-1.5,0-2.7-1.2-2.7-2.7v0
					C66.3,63.7,67.5,62.4,69,62.4z"/>
			</g>
			<g>
				<path class="st2" d="M73.7,52.7c1.5,0,2.7,1.2,2.7,2.7v0c0,1.5-1.2,2.7-2.7,2.7S71,56.9,71,55.4v0C71,53.9,72.2,52.7,73.7,52.7z
					"/>
			</g>
			<g>
				<path class="st2" d="M73.7,41.9c1.5,0,2.7,1.2,2.7,2.7v0c0,1.5-1.2,2.7-2.7,2.7S71,46.1,71,44.6v0C71,43.1,72.2,41.9,73.7,41.9z
					"/>
			</g>
			<g>
				<path class="st2" d="M69,32.1c1.5,0,2.7,1.2,2.7,2.7v0c0,1.5-1.2,2.7-2.7,2.7c-1.5,0-2.7-1.2-2.7-2.7v0
					C66.3,33.3,67.5,32.1,69,32.1z"/>
			</g>
			<g>
				<path class="st2" d="M60.5,25.4c1.5,0,2.7,1.2,2.7,2.7v0c0,1.5-1.2,2.7-2.7,2.7c-1.5,0-2.7-1.2-2.7-2.7v0
					C57.8,26.6,59.1,25.4,60.5,25.4z"/>
			</g>
			<g>
				<path class="st2" d="M50,22.9c1.5,0,2.7,1.2,2.7,2.7v0c0,1.5-1.2,2.7-2.7,2.7c-1.5,0-2.7-1.2-2.7-2.7v0
					C47.3,24.2,48.5,22.9,50,22.9z"/>
			</g>
			<g>
				<path class="st2" d="M39.5,25.4c1.5,0,2.7,1.2,2.7,2.7v0c0,1.5-1.2,2.7-2.7,2.7c-1.5,0-2.7-1.2-2.7-2.7v0
					C36.7,26.6,38,25.4,39.5,25.4z"/>
			</g>
			<g>
				<path class="st2" d="M31,32.1c1.5,0,2.7,1.2,2.7,2.7v0c0,1.5-1.2,2.7-2.7,2.7c-1.5,0-2.7-1.2-2.7-2.7v0
					C28.3,33.3,29.5,32.1,31,32.1z"/>
			</g>
			<g>
				<path class="st2" d="M26.3,41.9c1.5,0,2.7,1.2,2.7,2.7v0c0,1.5-1.2,2.7-2.7,2.7c-1.5,0-2.7-1.2-2.7-2.7v0
					C23.6,43.1,24.8,41.9,26.3,41.9z"/>
			</g>
			<g>
				<path class="st2" d="M26.3,52.7c1.5,0,2.7,1.2,2.7,2.7v0c0,1.5-1.2,2.7-2.7,2.7c-1.5,0-2.7-1.2-2.7-2.7v0
					C23.6,53.9,24.8,52.7,26.3,52.7z"/>
			</g>
			<g>
				<path class="st2" d="M31,62.4c1.5,0,2.7,1.2,2.7,2.7v0c0,1.5-1.2,2.7-2.7,2.7c-1.5,0-2.7-1.2-2.7-2.7v0
					C28.3,63.7,29.5,62.4,31,62.4z"/>
			</g>
			<g>
				<path class="st2" d="M39.5,69.2c1.5,0,2.7,1.2,2.7,2.7v0c0,1.5-1.2,2.7-2.7,2.7c-1.5,0-2.7-1.2-2.7-2.7v0
					C36.7,70.4,38,69.2,39.5,69.2z"/>
			</g>
			<g>
				<path class="st2" d="M50,71.6c1.5,0,2.7,1.2,2.7,2.7v0c0,1.5-1.2,2.7-2.7,2.7c-1.5,0-2.7-1.2-2.7-2.7v0
					C47.3,72.8,48.5,71.6,50,71.6z"/>
			</g>
		</g>
		<g>
			<path d="M50,4c25.4,0,46,20.7,46,46S75.4,96,50,96S4,75.4,4,50S24.6,4,50,4 M50,0C22.4,0,0,22.4,0,50c0,27.6,22.4,50,50,50
				s50-22.4,50-50C100,22.4,77.6,0,50,0L50,0z"/>
		</g>
	</g>
</g>
<g id="omega">
	<g id="_x31__00000065781884962726060380000001172801549584108724_" class="st0">
		<g class="st1">
			<path d="M50,4c25.4,0,46,20.7,46,46S75.4,96,50,96C24.6,96,4,75.4,4,50S24.6,4,50,4 M50,0C22.4,0,0,22.4,0,50
				c0,27.6,22.4,50,50,50c27.6,0,50-22.4,50-50C100,22.4,77.6,0,50,0L50,0z"/>
		</g>
		<g class="st1">
			<g>
				<path d="M20.3,48.7c-1.6,0-3-1.3-3-3V32.7c0-1.6,1.3-3,3-3c1.6,0,3,1.3,3,3v13.1C23.3,47.4,22,48.7,20.3,48.7z"/>
			</g>
			<g>
				<path d="M20.3,70.3c-1.6,0-3-1.3-3-3V54.3c0-1.6,1.3-3,3-3c1.6,0,3,1.3,3,3v13.1C23.3,69,22,70.3,20.3,70.3z"/>
			</g>
			<g>
				<path d="M50.1,48.7c-1.6,0-3-1.3-3-3v-7.6c0-1.4-1.1-2.5-2.5-2.5h-7.9c-1.4,0-2.5,1.1-2.5,2.5v7.6c0,1.6-1.3,3-3,3
					c-1.6,0-3-1.3-3-3v-7.6c0-4.6,3.8-8.4,8.4-8.4h7.9c4.6,0,8.4,3.8,8.4,8.4v7.6C53,47.4,51.7,48.7,50.1,48.7z"/>
			</g>
			<g>
				<path d="M44.6,70.3h-7.9c-4.6,0-8.4-3.8-8.4-8.4v-7.6c0-1.6,1.3-3,3-3c1.6,0,3,1.3,3,3v7.6c0,1.4,1.1,2.5,2.5,2.5h7.9
					c1.4,0,2.5-1.1,2.5-2.5v-7.6c0-1.6,1.3-3,3-3c1.6,0,3,1.3,3,3v7.6C53,66.5,49.3,70.3,44.6,70.3z"/>
			</g>
			<g>
				<path d="M79.7,48.7c-1.6,0-3-1.3-3-3v-7.6c0-1.4-1.1-2.5-2.5-2.5h-7.9c-1.4,0-2.5,1.1-2.5,2.5v7.6c0,1.6-1.3,3-3,3s-3-1.3-3-3
					v-7.6c0-4.6,3.8-8.4,8.4-8.4h7.9c4.6,0,8.4,3.8,8.4,8.4v7.6C82.6,47.4,81.3,48.7,79.7,48.7z"/>
			</g>
			<g>
				<path d="M74.2,70.3h-7.9c-4.6,0-8.4-3.8-8.4-8.4v-7.6c0-1.6,1.3-3,3-3s3,1.3,3,3v7.6c0,1.4,1.1,2.5,2.5,2.5h7.9
					c1.4,0,2.5-1.1,2.5-2.5v-7.6c0-1.6,1.3-3,3-3s3,1.3,3,3v7.6C82.6,66.5,78.9,70.3,74.2,70.3z"/>
			</g>
		</g>
	</g>
	<g id="_x32__00000052817863467327992560000012481238595791674511_">
		<g>
			<g>
				<path class="st2" d="M33,33.1c0-6,5.4-11.3,12.7-11.3c7.3,0,12.7,5.3,12.7,11.3c0,1.6,1.3,2.8,2.8,2.8c1.6,0,2.8-1.3,2.8-2.8
					c0-9.6-8.5-16.9-18.3-16.9c-9.9,0-18.3,7.3-18.3,16.9c0,1.6,1.3,2.8,2.8,2.8C31.8,35.9,33,34.7,33,33.1L33,33.1z M45.4,30.3
					c-4,0-7.3,3.3-7.3,7.3v8.3v8.8c-3-2.6-7.5-2.4-10.3,0.5c-2.3,2.5-2.7,6.2-0.9,9l8,12.9c2.6,4.1,7.1,6.7,12,6.7h12.1
					c6.9,0,12.8-5,13.9-11.9l1.3-8.2c0.9-5.5-2.4-10.8-7.7-12.5l-13.6-4.3v-1.5v-7.8C52.8,33.6,49.5,30.3,45.4,30.3L45.4,30.3z
					 M43.7,37.6c0-0.9,0.8-1.7,1.7-1.7c0.9,0,1.7,0.8,1.7,1.7v7.8v1.5c0,2.5,1.6,4.6,3.9,5.4l13.6,4.3c2.7,0.8,4.3,3.5,3.9,6.3
					l-1.3,8.2c-0.7,4.1-4.2,7.1-8.3,7.1H46.8c-2.9,0-5.6-1.5-7.2-4l-8-12.9c-0.4-0.7-0.3-1.6,0.2-2.2c0.8-0.8,2.1-0.8,2.8,0.1l4,5.2
					c0.7,1,2,1.3,3.1,0.9c1.1-0.4,1.9-1.5,1.9-2.7V45.9L43.7,37.6z"/>
			</g>
		</g>
		<g>
			<path d="M50,4c25.4,0,46,20.7,46,46S75.4,96,50,96S4,75.4,4,50S24.6,4,50,4 M50,0C22.4,0,0,22.4,0,50c0,27.6,22.4,50,50,50
				s50-22.4,50-50C100,22.4,77.6,0,50,0L50,0z"/>
		</g>
	</g>
</g>
<g id="mini" class="st0">
	<g id="_x31__00000060724745426813248620000005107911528168593569_" class="st1">
		<g>
			<g>
				<path class="st2" d="M56.3,27.8c1.7,0,3.2,1.4,3.2,3.2v9.5H69c1.7,0,3.2,1.4,3.2,3.2c0,1.7-1.4,3.2-3.2,3.2H56.3
					c-1.7,0-3.2-1.4-3.2-3.2V31C53.2,29.2,54.6,27.8,56.3,27.8z"/>
			</g>
			<g>
				<path class="st2" d="M73.4,26.6c1.2,1.2,1.2,3.2,0,4.5L58.6,45.9c-1.2,1.2-3.2,1.2-4.5,0c-1.2-1.2-1.2-3.2,0-4.5l14.8-14.8
					C70.1,25.4,72.1,25.4,73.4,26.6z"/>
			</g>
			<g>
				<path class="st2" d="M27.8,56.3c0-1.7,1.4-3.2,3.2-3.2h12.7c1.7,0,3.2,1.4,3.2,3.2V69c0,1.7-1.4,3.2-3.2,3.2
					c-1.7,0-3.2-1.4-3.2-3.2v-9.5H31C29.2,59.5,27.8,58.1,27.8,56.3z"/>
			</g>
			<g>
				<path class="st2" d="M45.9,54.1c1.2,1.2,1.2,3.2,0,4.5L31.1,73.4c-1.2,1.2-3.2,1.2-4.5,0c-1.2-1.2-1.2-3.2,0-4.5l14.8-14.8
					C42.7,52.9,44.7,52.9,45.9,54.1z"/>
			</g>
		</g>
		<g>
			<path d="M50,4c25.4,0,46,20.7,46,46c0,25.4-20.7,46-46,46C24.6,96,4,75.4,4,50C4,24.6,24.6,4,50,4 M50,0C22.4,0,0,22.4,0,50
				s22.4,50,50,50c27.6,0,50-22.4,50-50S77.6,0,50,0L50,0z"/>
		</g>
	</g>
	<g id="_x32__00000076562549101030342730000012300416550311403171_" class="st1">
		<g>
			<path d="M50,4c25.4,0,46,20.7,46,46c0,25.4-20.7,46-46,46S4,75.4,4,50C4,24.6,24.6,4,50,4 M50,0C22.4,0,0,22.4,0,50
				s22.4,50,50,50s50-22.4,50-50S77.6,0,50,0L50,0z"/>
		</g>
		<g>
			<g>
				<path class="st2" d="M50.8,23c6,0,10.8,4.8,10.8,10.8c0,6-4.8,10.8-10.8,10.8S40,39.7,40,33.8C40,27.8,44.9,23,50.8,23z
					 M56.2,33.8c0-3-2.4-5.4-5.4-5.4s-5.4,2.4-5.4,5.4c0,3,2.4,5.4,5.4,5.4S56.2,36.8,56.2,33.8z"/>
			</g>
			<g>
				<path class="st2" d="M64.3,50c6,0,10.8,4.8,10.8,10.8s-4.8,10.8-10.8,10.8s-10.8-4.8-10.8-10.8S58.4,50,64.3,50z M69.8,60.8
					c0-3-2.4-5.4-5.4-5.4c-3,0-5.4,2.4-5.4,5.4s2.4,5.4,5.4,5.4C67.3,66.2,69.8,63.8,69.8,60.8z"/>
			</g>
			<g>
				<path class="st2" d="M37.3,50c6,0,10.8,4.8,10.8,10.8s-4.8,10.8-10.8,10.8s-10.8-4.8-10.8-10.8S31.3,50,37.3,50z M42.7,60.8
					c0-3-2.4-5.4-5.4-5.4s-5.4,2.4-5.4,5.4s2.4,5.4,5.4,5.4S42.7,63.8,42.7,60.8z"/>
			</g>
			<g>
				<path class="st2" d="M59.7,57.1c-0.9,1.2-2.6,1.4-3.8,0.4l-6.8-5.4c-0.6-0.5-1-1.3-1-2.1v-8.1c0-1.5,1.2-2.7,2.7-2.7
					c1.5,0,2.7,1.2,2.7,2.7v6.8l5.7,4.6C60.4,54.2,60.6,55.9,59.7,57.1z"/>
			</g>
			<g>
				<path class="st2" d="M52.9,48.3c0.9,1.2,0.7,2.9-0.4,3.8l-6.8,5.4c-1.2,0.9-2.9,0.7-3.8-0.4c-0.9-1.2-0.7-2.9,0.4-3.8l6.8-5.4
					C50.3,47,52,47.1,52.9,48.3L52.9,48.3z"/>
			</g>
		</g>
	</g>
</g>
<g id="spin" class="st0">
	<g id="_x31__00000014622140272393379590000006728464106639351701_" class="st1">
		<g>
			<path d="M50,4c25.4,0,46,20.7,46,46c0,25.4-20.7,46-46,46C24.6,96,4,75.4,4,50C4,24.6,24.6,4,50,4 M50,0C22.4,0,0,22.4,0,50
				s22.4,50,50,50c27.6,0,50-22.4,50-50S77.6,0,50,0L50,0z"/>
		</g>
		<g>
			<g>
				<path class="st2" d="M37.6,29c4.7-2.7,10.1-3.8,15.5-3.1l-0.3,2.7l0.3-2.7c5.4,0.7,10.3,3.1,14.2,6.9c3.8,3.8,6.3,8.8,7.1,14.1
					c0.2,1.5-0.8,2.8-2.3,3.1c-1.5,0.2-2.8-0.8-3.1-2.3c-0.6-4.2-2.5-8-5.5-11l0,0c-3-3-6.9-4.9-11.1-5.4c-4.2-0.5-8.4,0.3-12.1,2.4
					l0,0c-2.4,1.4-4.5,3.3-6,5.5h4.9c1.5,0,2.7,1.2,2.7,2.7c0,1.5-1.2,2.7-2.7,2.7h-9.4c0,0-0.1,0-0.1,0h-1.3
					c-1.5,0-2.7-1.2-2.7-2.7V31.1c0-1.5,1.2-2.7,2.7-2.7c1.5,0,2.7,1.2,2.7,2.7v3.4C32.9,32.3,35.1,30.5,37.6,29L37.6,29z M28,50
					c1.5-0.2,2.8,0.8,3.1,2.3c0.6,4.2,2.5,8,5.5,11c3,3,6.9,4.9,11.1,5.4h0c4.2,0.5,8.4-0.3,12.1-2.4c2.4-1.4,4.5-3.3,6-5.5h-4.9
					c-1.5,0-2.7-1.2-2.7-2.7c0-1.5,1.2-2.7,2.7-2.7h9.4c0,0,0.1,0,0.1,0h1.3c1.5,0,2.7,1.2,2.7,2.7v10.8c0,1.5-1.2,2.7-2.7,2.7
					s-2.7-1.2-2.7-2.7v-3.4c-1.8,2.2-4,4.1-6.6,5.5c-4.7,2.7-10.1,3.8-15.5,3.1c-5.4-0.7-10.3-3.1-14.2-6.9
					c-3.8-3.8-6.3-8.8-7.1-14.1C25.5,51.6,26.5,50.2,28,50L28,50z"/>
			</g>
		</g>
	</g>
	<g id="_x32__00000111183140319848770300000013459252629964170169_" class="st1">
		<g>
			<path d="M50,4c25.4,0,46,20.7,46,46c0,25.4-20.7,46-46,46S4,75.4,4,50C4,24.6,24.6,4,50,4 M50,0C22.4,0,0,22.4,0,50
				s22.4,50,50,50s50-22.4,50-50S77.6,0,50,0L50,0z"/>
		</g>
		<g>
			<g>
				<g>
					<path d="M67.7,66.7H32.3c-9.2,0-16.7-7.5-16.7-16.7s7.5-16.7,16.7-16.7h35.5c9.2,0,16.7,7.5,16.7,16.7S76.9,66.7,67.7,66.7z
						 M32.3,39.2c-5.9,0-10.8,4.8-10.8,10.8s4.8,10.8,10.8,10.8h35.5c5.9,0,10.8-4.8,10.8-10.8s-4.8-10.8-10.8-10.8H32.3z"/>
				</g>
			</g>
			<g>
				<path d="M68.6,53H31.4c-1.6,0-3-1.3-3-3s1.3-3,3-3h37.2c1.6,0,3,1.3,3,3S70.2,53,68.6,53z"/>
			</g>
		</g>
	</g>
	<g id="_x33__00000110471668606128762770000000167756038661641133_" class="st1">
		<g>
			<path d="M50,4c25.4,0,46,20.7,46,46c0,25.4-20.7,46-46,46S4,75.4,4,50C4,24.6,24.6,4,50,4 M50,0C22.4,0,0,22.4,0,50
				s22.4,50,50,50s50-22.4,50-50S77.6,0,50,0L50,0z"/>
		</g>
		<g>
			<g>
				<path class="st2" d="M44.6,50c0-3,2.4-5.4,5.4-5.4c3,0,5.4,2.4,5.4,5.4c0,3-2.4,5.4-5.4,5.4C47,55.4,44.6,53,44.6,50z"/>
			</g>
			<g>
				<path class="st2" d="M33.8,50c0-9,7.3-16.2,16.2-16.2c9,0,16.2,7.3,16.2,16.2c0,9-7.3,16.2-16.2,16.2C41,66.2,33.8,58.9,33.8,50
					z M50,39.2c-6,0-10.8,4.8-10.8,10.8c0,6,4.8,10.8,10.8,10.8c6,0,10.8-4.8,10.8-10.8C60.8,44,56,39.2,50,39.2z"/>
			</g>
			<g>
				<path class="st2" d="M60.5,69.2c1.5,0,2.7,1.2,2.7,2.7v0c0,1.5-1.2,2.7-2.7,2.7c-1.5,0-2.7-1.2-2.7-2.7v0
					C57.8,70.4,59.1,69.2,60.5,69.2z"/>
			</g>
			<g>
				<path class="st2" d="M69,62.4c1.5,0,2.7,1.2,2.7,2.7v0c0,1.5-1.2,2.7-2.7,2.7c-1.5,0-2.7-1.2-2.7-2.7v0
					C66.3,63.7,67.5,62.4,69,62.4z"/>
			</g>
			<g>
				<path class="st2" d="M73.7,52.7c1.5,0,2.7,1.2,2.7,2.7v0c0,1.5-1.2,2.7-2.7,2.7S71,56.9,71,55.4v0C71,53.9,72.2,52.7,73.7,52.7z
					"/>
			</g>
			<g>
				<path class="st2" d="M73.7,41.9c1.5,0,2.7,1.2,2.7,2.7v0c0,1.5-1.2,2.7-2.7,2.7S71,46.1,71,44.6v0C71,43.1,72.2,41.9,73.7,41.9z
					"/>
			</g>
			<g>
				<path class="st2" d="M69,32.1c1.5,0,2.7,1.2,2.7,2.7v0c0,1.5-1.2,2.7-2.7,2.7c-1.5,0-2.7-1.2-2.7-2.7v0
					C66.3,33.3,67.5,32.1,69,32.1z"/>
			</g>
			<g>
				<path class="st2" d="M60.5,25.4c1.5,0,2.7,1.2,2.7,2.7v0c0,1.5-1.2,2.7-2.7,2.7c-1.5,0-2.7-1.2-2.7-2.7v0
					C57.8,26.6,59.1,25.4,60.5,25.4z"/>
			</g>
			<g>
				<path class="st2" d="M50,22.9c1.5,0,2.7,1.2,2.7,2.7v0c0,1.5-1.2,2.7-2.7,2.7c-1.5,0-2.7-1.2-2.7-2.7v0
					C47.3,24.2,48.5,22.9,50,22.9z"/>
			</g>
			<g>
				<path class="st2" d="M39.5,25.4c1.5,0,2.7,1.2,2.7,2.7v0c0,1.5-1.2,2.7-2.7,2.7c-1.5,0-2.7-1.2-2.7-2.7v0
					C36.7,26.6,38,25.4,39.5,25.4z"/>
			</g>
			<g>
				<path class="st2" d="M31,32.1c1.5,0,2.7,1.2,2.7,2.7v0c0,1.5-1.2,2.7-2.7,2.7c-1.5,0-2.7-1.2-2.7-2.7v0
					C28.3,33.3,29.5,32.1,31,32.1z"/>
			</g>
			<g>
				<path class="st2" d="M26.3,41.9c1.5,0,2.7,1.2,2.7,2.7v0c0,1.5-1.2,2.7-2.7,2.7c-1.5,0-2.7-1.2-2.7-2.7v0
					C23.6,43.1,24.8,41.9,26.3,41.9z"/>
			</g>
			<g>
				<path class="st2" d="M26.3,52.7c1.5,0,2.7,1.2,2.7,2.7v0c0,1.5-1.2,2.7-2.7,2.7c-1.5,0-2.7-1.2-2.7-2.7v0
					C23.6,53.9,24.8,52.7,26.3,52.7z"/>
			</g>
			<g>
				<path class="st2" d="M31,62.4c1.5,0,2.7,1.2,2.7,2.7v0c0,1.5-1.2,2.7-2.7,2.7c-1.5,0-2.7-1.2-2.7-2.7v0
					C28.3,63.7,29.5,62.4,31,62.4z"/>
			</g>
			<g>
				<path class="st2" d="M39.5,69.2c1.5,0,2.7,1.2,2.7,2.7v0c0,1.5-1.2,2.7-2.7,2.7c-1.5,0-2.7-1.2-2.7-2.7v0
					C36.7,70.4,38,69.2,39.5,69.2z"/>
			</g>
			<g>
				<path class="st2" d="M50,71.6c1.5,0,2.7,1.2,2.7,2.7v0c0,1.5-1.2,2.7-2.7,2.7c-1.5,0-2.7-1.2-2.7-2.7v0
					C47.3,72.8,48.5,71.6,50,71.6z"/>
			</g>
		</g>
	</g>
</g>
<g id="plus" class="st0">
	<g id="_x31__00000158730062646426909180000004657451436248759466_" class="st1">
		<g>
			<path d="M50,4c25.4,0,46,20.7,46,46c0,25.4-20.7,46-46,46C24.6,96,4,75.4,4,50C4,24.6,24.6,4,50,4 M50,0C22.4,0,0,22.4,0,50
				s22.4,50,50,50c27.6,0,50-22.4,50-50S77.6,0,50,0L50,0z"/>
		</g>
		<g>
			<g>
				<g>
					<path d="M75.3,70.9c-1.7,0-2.8-1.1-2.8-2.8V32c0-1.7,1.1-2.8,2.8-2.8s2.8,1.1,2.8,2.8V68C78.2,69.7,77,70.9,75.3,70.9z"/>
				</g>
			</g>
			<g>
				<g>
					<path d="M24.7,70.9c-1.7,0-2.8-1.1-2.8-2.8V32c0-1.7,1.1-2.8,2.8-2.8s2.8,1.1,2.8,2.8V68C27.5,69.7,26.3,70.9,24.7,70.9z"/>
				</g>
			</g>
			<g>
				<g>
					<path d="M57,59.9c-0.8,0-1.4-0.3-2-0.8c-1.1-1.1-1.1-2.8,0-3.9l2.3-2.3H42.7l2.3,2.3c1.1,1.1,1.1,2.8,0,3.9s-2.8,1.1-3.9,0
						l-7-7c-0.3-0.3-0.6-0.6-0.6-0.8c-0.3-0.3-0.3-0.8-0.3-1.1s0-0.8,0.3-1.1c0-0.3,0.3-0.6,0.6-0.8l7-7c1.1-1.1,2.8-1.1,3.9,0
						s1.1,2.8,0,3.9l-2.3,2.3h14.6l-2.3-2.3c-1.1-1.1-1.1-2.8,0-3.9c1.1-1.1,2.8-1.1,3.9,0l7,7c0.3,0.3,0.6,0.6,0.6,0.8
						s0.3,0.6,0.3,1.1c0,0.3,0,0.8-0.3,1.1c0,0.3-0.3,0.6-0.6,0.8l-7,7C58.4,59.6,57.9,59.9,57,59.9L57,59.9z"/>
				</g>
			</g>
		</g>
	</g>
	<g id="_x32__00000046320672590458634570000012914700726900816786_" class="st1">
		<g>
			<path d="M50,4c25.4,0,46,20.7,46,46c0,25.4-20.7,46-46,46S4,75.4,4,50C4,24.6,24.6,4,50,4 M50,0C22.4,0,0,22.4,0,50
				s22.4,50,50,50s50-22.4,50-50S77.6,0,50,0L50,0z"/>
		</g>
		<g>
			<g>
				<path class="st2" d="M63.9,24.3c1.6-1.6,3.7-2.5,5.9-2.5c2.2,0,4.4,0.9,5.9,2.5c1.6,1.6,2.5,3.7,2.5,5.9c0,2.2-0.9,4.4-2.5,5.9
					c0,0,0,0,0,0L53,58.9c-0.5,0.5-1.2,0.8-1.9,0.8H43c-1.5,0-2.7-1.2-2.7-2.7v-8.1c0-0.7,0.3-1.4,0.8-1.9L63.9,24.3
					C63.9,24.3,63.9,24.3,63.9,24.3L63.9,24.3z M69.8,27.2c-0.8,0-1.5,0.3-2.1,0.9l0,0L45.7,50v4.3H50l21.9-22l0,0
					c0.6-0.6,0.9-1.3,0.9-2.1c0-0.8-0.3-1.5-0.9-2.1v0C71.3,27.5,70.6,27.2,69.8,27.2L69.8,27.2z"/>
			</g>
			<g>
				<path class="st2" d="M60,28c1.1-1.1,2.8-1.1,3.8,0l8.1,8.1c1.1,1.1,1.1,2.8,0,3.8c-1.1,1.1-2.8,1.1-3.8,0L60,31.8
					C59,30.8,59,29.1,60,28z"/>
			</g>
			<g>
				<path class="st2" d="M45.7,35.1c0.2,1.5-0.8,2.9-2.3,3.1c-4.1,0.6-7.7,2.7-10.3,5.9h0c-2.6,3.2-3.8,7.2-3.5,11.3
					c0.3,4.1,2.1,7.9,5.1,10.7c3,2.8,6.9,4.4,11,4.4c3.9,0,7.7-1.4,10.6-4c2.9-2.6,4.9-6.1,5.4-9.9c0.2-1.5,1.6-2.5,3.1-2.3
					c1.5,0.2,2.5,1.6,2.3,3.1c-0.7,5.1-3.3,9.9-7.3,13.3c-3.9,3.4-9,5.3-14.2,5.3h0c-5.5,0-10.7-2.1-14.7-5.8h0
					c-4-3.7-6.4-8.8-6.8-14.3c-0.4-5.4,1.3-10.8,4.7-15.1c3.4-4.3,8.3-7.1,13.7-7.9C44.1,32.6,45.5,33.7,45.7,35.1L45.7,35.1z"/>
			</g>
		</g>
	</g>
</g>
<g id="air" class="st0">
	<g id="_x31__00000017513709930237253110000009725328342328746164_" class="st1">
		<g>
			<path d="M50,4c25.4,0,46,20.7,46,46S75.4,96,50,96C24.6,96,4,75.4,4,50S24.6,4,50,4 M50,0C22.4,0,0,22.4,0,50
				c0,27.6,22.4,50,50,50c27.6,0,50-22.4,50-50C100,22.4,77.6,0,50,0L50,0z"/>
		</g>
		<g>
			<path d="M73.1,26.9c-1.7-1.7-4-2.7-6.5-2.7c-2.5,0-4.8,1-6.5,2.7l-7.7,7.7l-20.7-6.9c-1-0.3-2.1-0.1-2.9,0.7l-6,6
				c-0.6,0.6-0.9,1.4-0.8,2.3c0.1,0.8,0.5,1.6,1.2,2.1l15,10l-2.7,2.7l-4.8,0c-0.8,0-1.5,0.3-2,0.8l-6,6c-0.7,0.7-1,1.6-0.8,2.5
				c0.2,0.9,0.8,1.7,1.7,2.1l9.4,4l4,9.4c0.4,0.9,1.1,1.5,2.1,1.7c0.9,0.2,1.9-0.1,2.5-0.8l6-6c0.5-0.5,0.8-1.2,0.8-2v-4.8l2.7-2.7
				l10,15c0.5,0.7,1.2,1.2,2.1,1.3c0.8,0.1,1.7-0.2,2.3-0.8l6-6c0.8-0.8,1-1.9,0.7-2.9l-6.9-20.7l7.7-7.7c1.7-1.7,2.7-4,2.7-6.5
				C75.8,30.9,74.8,28.6,73.1,26.9z M69.1,35.9l-9,9c-0.8,0.8-1,1.9-0.7,2.9l6.9,20.7l-2.3,2.3l-10-15c-0.5-0.7-1.2-1.2-2.1-1.3
				c-0.9-0.1-1.7,0.2-2.3,0.8l-6,6c-0.5,0.5-0.8,1.2-0.8,2l0,4.8l-2.2,2.2l-2.8-6.6c-0.3-0.7-0.8-1.2-1.5-1.5l-6.6-2.8l2.2-2.2
				l4.8,0c0.8,0,1.5-0.3,2-0.8l6-6c0.6-0.6,0.9-1.4,0.8-2.3c-0.1-0.8-0.5-1.6-1.2-2.1l-15-10l2.3-2.3l20.7,6.9
				c1,0.3,2.1,0.1,2.9-0.7l9-9c0.7-0.7,1.5-1,2.5-1c0.9,0,1.8,0.4,2.5,1c0.7,0.7,1,1.6,1,2.5C70.1,34.3,69.7,35.2,69.1,35.9z"/>
		</g>
	</g>
	<g id="_x32__00000061429138682236839810000012121856099559479460_" class="st1">
		<g>
			<path d="M50,4c25.4,0,46,20.7,46,46c0,25.4-20.7,46-46,46S4,75.4,4,50C4,24.6,24.6,4,50,4 M50,0C22.4,0,0,22.4,0,50
				s22.4,50,50,50s50-22.4,50-50S77.6,0,50,0L50,0z"/>
		</g>
		<g>
			<g>
				<g>
					<path d="M67.7,66.7H32.3c-9.2,0-16.7-7.5-16.7-16.7s7.5-16.7,16.7-16.7h35.5c9.2,0,16.7,7.5,16.7,16.7S76.9,66.7,67.7,66.7z
						 M32.3,39.2c-5.9,0-10.8,4.8-10.8,10.8s4.8,10.8,10.8,10.8h35.5c5.9,0,10.8-4.8,10.8-10.8s-4.8-10.8-10.8-10.8H32.3z"/>
				</g>
			</g>
			<g>
				<path d="M68.6,53H31.4c-1.6,0-3-1.3-3-3s1.3-3,3-3h37.2c1.6,0,3,1.3,3,3S70.2,53,68.6,53z"/>
			</g>
		</g>
	</g>
</g>
<g id="zero" class="st0">
	<g id="_x31__00000120534673756330643090000010929307428612008104_" class="st1">
		<g>
			<path d="M50,4c25.4,0,46,20.7,46,46c0,25.4-20.7,46-46,46C24.6,96,4,75.4,4,50C4,24.6,24.6,4,50,4 M50,0C22.4,0,0,22.4,0,50
				s22.4,50,50,50c27.6,0,50-22.4,50-50S77.6,0,50,0L50,0z"/>
		</g>
		<g>
			<g>
				<g>
					<path d="M75.3,70.9c-1.7,0-2.8-1.1-2.8-2.8V32c0-1.7,1.1-2.8,2.8-2.8s2.8,1.1,2.8,2.8V68C78.2,69.7,77,70.9,75.3,70.9z"/>
				</g>
			</g>
			<g>
				<g>
					<path d="M24.7,70.9c-1.7,0-2.8-1.1-2.8-2.8V32c0-1.7,1.1-2.8,2.8-2.8s2.8,1.1,2.8,2.8V68C27.5,69.7,26.3,70.9,24.7,70.9z"/>
				</g>
			</g>
			<g>
				<g>
					<path d="M57,59.9c-0.8,0-1.4-0.3-2-0.8c-1.1-1.1-1.1-2.8,0-3.9l2.3-2.3H42.7l2.3,2.3c1.1,1.1,1.1,2.8,0,3.9s-2.8,1.1-3.9,0
						l-7-7c-0.3-0.3-0.6-0.6-0.6-0.8c-0.3-0.3-0.3-0.8-0.3-1.1s0-0.8,0.3-1.1c0-0.3,0.3-0.6,0.6-0.8l7-7c1.1-1.1,2.8-1.1,3.9,0
						s1.1,2.8,0,3.9l-2.3,2.3h14.6l-2.3-2.3c-1.1-1.1-1.1-2.8,0-3.9c1.1-1.1,2.8-1.1,3.9,0l7,7c0.3,0.3,0.6,0.6,0.6,0.8
						s0.3,0.6,0.3,1.1c0,0.3,0,0.8-0.3,1.1c0,0.3-0.3,0.6-0.6,0.8l-7,7C58.4,59.6,57.9,59.9,57,59.9L57,59.9z"/>
				</g>
			</g>
		</g>
	</g>
	<g id="_x32__00000000922733711981492010000004368456319717772934_" class="st1">
		<g>
			<path d="M50,4c25.4,0,46,20.7,46,46S75.4,96,50,96S4,75.4,4,50S24.6,4,50,4 M50,0C22.4,0,0,22.4,0,50c0,27.6,22.4,50,50,50
				s50-22.4,50-50C100,22.4,77.6,0,50,0L50,0z"/>
		</g>
		<g>
			<path d="M50,79.5c-12,0-21.8-9.8-21.8-21.8V42.3c0-12,9.8-21.8,21.8-21.8s21.8,9.8,21.8,21.8v15.3C71.8,69.7,62,79.5,50,79.5z
				 M50,26.5c-8.8,0-15.9,7.1-15.9,15.9v15.3c0,8.8,7.1,15.9,15.9,15.9s15.9-7.1,15.9-15.9V42.3C65.9,33.6,58.8,26.5,50,26.5z"/>
		</g>
		<g>
			<path d="M41.3,61.7c-0.8,0-1.5-0.3-2.1-0.9c-1.2-1.2-1.2-3,0-4.2l17.4-17.4c1.2-1.2,3-1.2,4.2,0c1.2,1.2,1.2,3,0,4.2L43.4,60.8
				C42.8,61.4,42,61.7,41.3,61.7z"/>
		</g>
		<g>
			<circle cx="41.8" cy="41.8" r="4.3"/>
		</g>
		<g>
			<circle cx="58.2" cy="58.2" r="4.3"/>
		</g>
	</g>
</g>
<g id="power" class="st0">
	<g id="_x31__00000102533443217266989560000002530511801068470151_" class="st1">
		<g>
			<path d="M50,4c25.4,0,46,20.7,46,46S75.4,96,50,96C24.6,96,4,75.4,4,50S24.6,4,50,4 M50,0C22.4,0,0,22.4,0,50
				c0,27.6,22.4,50,50,50c27.6,0,50-22.4,50-50C100,22.4,77.6,0,50,0L50,0z"/>
		</g>
		<g>
			<g>
				<path d="M61.3,77.9H38.7c-5,0-9.1-4.1-9.1-9.1V39.6c0-5,4.1-9.1,9.1-9.1h22.7c5,0,9.1,4.1,9.1,9.1v29.3
					C70.4,73.9,66.4,77.9,61.3,77.9z M38.7,36.4c-1.7,0-3.2,1.4-3.2,3.2v29.3c0,1.7,1.4,3.2,3.2,3.2h22.7c1.7,0,3.2-1.4,3.2-3.2
					V39.6c0-1.7-1.4-3.2-3.2-3.2H38.7z"/>
			</g>
			<g>
				<path d="M59.3,28H40.7c-1.6,0-3-1.3-3-3s1.3-3,3-3h18.6c1.6,0,3,1.3,3,3S60.9,28,59.3,28z"/>
			</g>
			<g>
				<path d="M55.3,57.2H44.7c-1.6,0-3-1.3-3-3c0-1.6,1.3-3,3-3h10.5c1.6,0,3,1.3,3,3C58.2,55.8,56.9,57.2,55.3,57.2z"/>
			</g>
			<g>
				<path d="M50,62.4c-1.6,0-3-1.3-3-3V48.9c0-1.6,1.3-3,3-3c1.6,0,3,1.3,3,3v10.5C53,61.1,51.6,62.4,50,62.4z"/>
			</g>
		</g>
	</g>
	<g id="_x32__00000093899123228630531470000011786682455869105085_" class="st1">
		<g>
			<path d="M50,4c25.4,0,46,20.7,46,46S75.4,96,50,96S4,75.4,4,50S24.6,4,50,4 M50,0C22.4,0,0,22.4,0,50c0,27.6,22.4,50,50,50
				s50-22.4,50-50C100,22.4,77.6,0,50,0L50,0z"/>
		</g>
		<g>
			<g>
				<path class="st2" d="M56.3,27.8c1.7,0,3.2,1.4,3.2,3.2v9.5H69c1.7,0,3.2,1.4,3.2,3.2s-1.4,3.2-3.2,3.2H56.3
					c-1.7,0-3.2-1.4-3.2-3.2V31C53.2,29.2,54.6,27.8,56.3,27.8z"/>
			</g>
			<g>
				<path class="st2" d="M73.4,26.6c1.2,1.2,1.2,3.2,0,4.5L58.6,45.9c-1.2,1.2-3.2,1.2-4.5,0c-1.2-1.2-1.2-3.2,0-4.5l14.8-14.8
					C70.1,25.4,72.1,25.4,73.4,26.6z"/>
			</g>
			<g>
				<path class="st2" d="M27.8,56.3c0-1.7,1.4-3.2,3.2-3.2h12.7c1.7,0,3.2,1.4,3.2,3.2V69c0,1.7-1.4,3.2-3.2,3.2
					c-1.7,0-3.2-1.4-3.2-3.2v-9.5H31C29.2,59.5,27.8,58.1,27.8,56.3z"/>
			</g>
			<g>
				<path class="st2" d="M45.9,54.1c1.2,1.2,1.2,3.2,0,4.5L31.1,73.4c-1.2,1.2-3.2,1.2-4.5,0c-1.2-1.2-1.2-3.2,0-4.5l14.8-14.8
					C42.7,52.9,44.7,52.9,45.9,54.1z"/>
			</g>
		</g>
	</g>
	<g id="_x33__00000121253725935121653990000004777253026298355620_" class="st1">
		<g>
			<path d="M50,4c25.4,0,46,20.7,46,46S75.4,96,50,96C24.6,96,4,75.4,4,50S24.6,4,50,4 M50,0C22.4,0,0,22.4,0,50
				c0,27.6,22.4,50,50,50c27.6,0,50-22.4,50-50C100,22.4,77.6,0,50,0L50,0z"/>
		</g>
		<g>
			<path d="M73.1,26.9c-1.7-1.7-4-2.7-6.5-2.7c-2.5,0-4.8,1-6.5,2.7l-7.7,7.7l-20.7-6.9c-1-0.3-2.1-0.1-2.9,0.7l-6,6
				c-0.6,0.6-0.9,1.4-0.8,2.3c0.1,0.8,0.5,1.6,1.2,2.1l15,10l-2.7,2.7l-4.8,0c-0.8,0-1.5,0.3-2,0.8l-6,6c-0.7,0.7-1,1.6-0.8,2.5
				c0.2,0.9,0.8,1.7,1.7,2.1l9.4,4l4,9.4c0.4,0.9,1.1,1.5,2.1,1.7c0.9,0.2,1.9-0.1,2.5-0.8l6-6c0.5-0.5,0.8-1.2,0.8-2v-4.8l2.7-2.7
				l10,15c0.5,0.7,1.2,1.2,2.1,1.3c0.8,0.1,1.7-0.2,2.3-0.8l6-6c0.8-0.8,1-1.9,0.7-2.9l-6.9-20.7l7.7-7.7c1.7-1.7,2.7-4,2.7-6.5
				C75.8,30.9,74.8,28.6,73.1,26.9z M69.1,35.9l-9,9c-0.8,0.8-1,1.9-0.7,2.9l6.9,20.7l-2.3,2.3l-10-15c-0.5-0.7-1.2-1.2-2.1-1.3
				c-0.9-0.1-1.7,0.2-2.3,0.8l-6,6c-0.5,0.5-0.8,1.2-0.8,2l0,4.8l-2.2,2.2l-2.8-6.6c-0.3-0.7-0.8-1.2-1.5-1.5l-6.6-2.8l2.2-2.2
				l4.8,0c0.8,0,1.5-0.3,2-0.8l6-6c0.6-0.6,0.9-1.4,0.8-2.3c-0.1-0.8-0.5-1.6-1.2-2.1l-15-10l2.3-2.3l20.7,6.9
				c1,0.3,2.1,0.1,2.9-0.7l9-9c0.7-0.7,1.5-1,2.5-1c0.9,0,1.8,0.4,2.5,1c0.7,0.7,1,1.6,1,2.5C70.1,34.3,69.7,35.2,69.1,35.9z"/>
		</g>
	</g>
	<g id="_x34_" class="st1">
		<g>
			<path d="M50,4c25.4,0,46,20.7,46,46S75.4,96,50,96S4,75.4,4,50S24.6,4,50,4 M50,0C22.4,0,0,22.4,0,50c0,27.6,22.4,50,50,50
				s50-22.4,50-50C100,22.4,77.6,0,50,0L50,0z"/>
		</g>
		<g>
			<g>
				<path d="M20.4,48.7c-1.6,0-3-1.3-3-3V32.7c0-1.6,1.3-3,3-3s3,1.3,3,3v13.1C23.4,47.4,22,48.7,20.4,48.7z"/>
			</g>
			<g>
				<path d="M20.4,70.3c-1.6,0-3-1.3-3-3V54.3c0-1.6,1.3-3,3-3s3,1.3,3,3v13.1C23.4,69,22,70.3,20.4,70.3z"/>
			</g>
			<g>
				<path d="M50.1,48.7c-1.6,0-3-1.3-3-3v-7.6c0-1.4-1.1-2.5-2.5-2.5h-7.9c-1.4,0-2.5,1.1-2.5,2.5v7.6c0,1.6-1.3,3-3,3s-3-1.3-3-3
					v-7.6c0-4.6,3.8-8.4,8.4-8.4h7.9c4.6,0,8.4,3.8,8.4,8.4v7.6C53.1,47.4,51.8,48.7,50.1,48.7z"/>
			</g>
			<g>
				<path d="M44.7,70.3h-7.9c-4.6,0-8.4-3.8-8.4-8.4v-7.6c0-1.6,1.3-3,3-3s3,1.3,3,3v7.6c0,1.4,1.1,2.5,2.5,2.5h7.9
					c1.4,0,2.5-1.1,2.5-2.5v-7.6c0-1.6,1.3-3,3-3s3,1.3,3,3v7.6C53.1,66.5,49.3,70.3,44.7,70.3z"/>
			</g>
			<g>
				<path d="M79.7,48.7c-1.6,0-3-1.3-3-3v-7.6c0-1.4-1.1-2.5-2.5-2.5h-7.9c-1.4,0-2.5,1.1-2.5,2.5v7.6c0,1.6-1.3,3-3,3s-3-1.3-3-3
					v-7.6c0-4.6,3.8-8.4,8.4-8.4h7.9c4.6,0,8.4,3.8,8.4,8.4v7.6C82.7,47.4,81.4,48.7,79.7,48.7z"/>
			</g>
			<g>
				<path d="M74.3,70.3h-7.9c-4.6,0-8.4-3.8-8.4-8.4v-7.6c0-1.6,1.3-3,3-3s3,1.3,3,3v7.6c0,1.4,1.1,2.5,2.5,2.5h7.9
					c1.4,0,2.5-1.1,2.5-2.5v-7.6c0-1.6,1.3-3,3-3s3,1.3,3,3v7.6C82.7,66.5,78.9,70.3,74.3,70.3z"/>
			</g>
		</g>
	</g>
</g>
</svg>
