<svg width="90" height="18" viewBox="0 0 90 18" fill="none" xmlns="http://www.w3.org/2000/svg">
<path fill-rule="evenodd" clip-rule="evenodd" d="M69.4286 1.4343C70.0953 0.104387 71.717 -0.380853 73.0144 0.320049C73.8794 0.787317 74.2758 1.64997 74.0595 2.5845C73.9052 3.21227 73.6725 3.81661 73.4389 4.42326L73.4389 4.42332L73.4389 4.42339C73.3181 4.73717 73.1971 5.05157 73.0865 5.37014C72.3273 7.5409 71.5503 9.70279 70.7742 11.862C70.4451 12.7776 70.1162 13.6926 69.789 14.6077C69.1042 16.5127 67.951 17.3214 65.9148 17.3214H64.3832C63.266 17.3394 62.5092 16.8542 61.9325 15.9556C61.5397 15.3253 61.3411 14.6465 61.1374 13.95L61.1036 13.8349L60.9415 13.3496H58.2386H57.5538H54.923C54.9147 13.3745 54.9055 13.4012 54.8955 13.43C54.8621 13.5265 54.8205 13.6467 54.7789 13.7989L54.7297 13.9581C54.5131 14.6595 54.298 15.3566 53.8959 15.9915C53.3193 16.8721 52.5625 17.3214 51.4633 17.3214C50.904 17.3244 50.3442 17.3279 49.7841 17.3314C46.9696 17.3489 44.1468 17.3664 41.3364 17.3214C39.967 17.3035 39.2102 16.4947 39.2102 15.1289C39.1982 13.4761 39.2022 11.8154 39.2062 10.152L39.2062 10.1492C39.2082 9.31746 39.2102 8.48501 39.2102 7.65257V7.00558V5.19042V5.15448V4.56141H38.5615H31.0474C30.9248 4.56141 30.8254 4.56718 30.7393 4.57218L30.7393 4.57219L30.7393 4.57219C30.6735 4.57601 30.6155 4.57938 30.5609 4.57938V7.27516H30.8852C31.6654 7.26319 32.4536 7.26716 33.2444 7.27115C33.6409 7.27315 34.0379 7.27516 34.435 7.27516C34.6513 7.27516 34.8855 7.29313 35.1018 7.32907C36.273 7.52676 36.9397 8.29955 36.9037 9.46772C36.8676 10.6 36.1829 11.3907 35.0297 11.4985C33.7143 11.6243 31.0654 11.5525 31.0654 11.5525H30.4528V12.1276V12.1635V14.9851C30.5248 16.6385 29.3896 17.3753 27.876 17.2855C26.3624 17.1956 25.7137 16.4767 25.7137 14.9491V2.60247C25.7137 1.09284 26.4705 0.320049 28.0021 0.302077C29.455 0.290101 30.8999 0.294086 32.3475 0.298078C33.0722 0.300077 33.7977 0.302077 34.5251 0.302077C35.1858 0.302077 35.8466 0.30008 36.5073 0.298083C37.8287 0.29409 39.1501 0.290096 40.4715 0.302077C41.0301 0.320049 41.5707 0.355993 42.1293 0.409908C43.2465 0.535711 43.9312 1.32647 43.9312 2.49464V10.2765V13.152H44.616H49.4271C49.5666 13.152 49.6869 13.1456 49.7843 13.1404C49.8504 13.1369 49.906 13.134 49.9497 13.134L50.6885 11.211C51.7152 8.48039 52.7599 5.74978 53.8046 3.01917L53.8052 3.0174L53.8058 3.01583C53.8959 2.74625 54.004 2.47667 54.1302 2.22507C54.8149 0.787317 55.9501 0.0504711 57.5538 0.0504711C57.6409 0.0504711 57.7273 0.0497425 57.813 0.0490188C58.1532 0.0461483 58.4842 0.0433552 58.8152 0.0864148C60.1486 0.248162 61.0676 0.967036 61.6262 2.13521C62.018 2.94278 62.3341 3.79755 62.6499 4.65163L62.6499 4.65177L62.65 4.65198L62.6501 4.65216C62.77 4.97633 62.8898 5.3004 63.0137 5.62175C63.7705 7.56271 64.5093 9.52164 65.2301 11.4806C65.3022 11.6783 65.3562 11.7861 65.4103 11.876H66.1851C66.1977 11.8384 66.2102 11.7964 66.2243 11.7494L66.2244 11.7492L66.2246 11.7484C66.2509 11.6606 66.2825 11.555 66.3293 11.4267L66.3304 11.4229C67.249 8.3689 68.1676 5.31496 69.1042 2.26101C69.1943 1.99143 69.3024 1.70388 69.4286 1.4343ZM57.5538 5.24434C57.5178 5.29825 57.4818 5.38811 57.4457 5.51392C57.0493 6.78992 56.6349 8.04795 56.2204 9.288C56.1664 9.44975 56.1303 9.55758 56.1303 9.6115H59.7162C59.6981 9.55758 59.6621 9.44975 59.608 9.27003C59.1936 8.02997 58.7972 6.80789 58.4188 5.56783C58.3879 5.4961 58.3688 5.43021 58.3514 5.37016C58.3383 5.3249 58.3261 5.28296 58.3107 5.24434H57.5538ZM22.9389 2.72848V8.82094C22.9389 9.49256 22.9369 10.1642 22.9349 10.8351V10.8357V10.8358C22.9309 12.1754 22.9269 13.5125 22.9389 14.8415C22.9569 15.776 22.7767 16.6387 21.8217 17.0341C20.7585 17.4834 19.7314 17.4115 18.8124 16.6567C18.3439 16.2613 17.9475 15.776 17.5871 15.2908C16.8754 14.3294 16.1592 13.3725 15.443 12.4156L15.4428 12.4152L15.4427 12.4151L15.4426 12.4151C14.7264 11.4581 14.0102 10.5012 13.2985 9.53981C13.2264 9.44995 13.1724 9.37807 13.1363 9.32415H12.2534V9.7375C12.2534 10.235 12.2505 10.7339 12.2475 11.2334C12.2402 12.4845 12.2328 13.7395 12.2714 14.9853C12.3075 16.4949 11.4786 17.3216 9.91089 17.3216C8.32519 17.3396 7.51432 16.459 7.53234 15.0033C7.56838 10.9596 7.55036 6.89795 7.53234 2.83631C7.53234 1.86583 7.71253 1.00318 8.68557 0.607804C9.74872 0.176479 10.8119 0.248367 11.7128 1.03913C12.2848 1.53352 12.7223 2.1352 13.1644 2.74327L13.1644 2.74328L13.1644 2.7433L13.1644 2.74332C13.3491 2.99731 13.5346 3.25241 13.731 3.50127C14.0694 3.95662 14.4077 4.41356 14.7466 4.87114L14.7469 4.87158C15.5448 5.94898 16.3453 7.02995 17.1547 8.10207C17.1787 8.13202 17.2007 8.16397 17.2227 8.19592C17.2668 8.25982 17.3108 8.32372 17.3709 8.37164H18.1818C18.1998 8.26381 18.1998 8.12004 18.1998 7.94032V2.65659C18.1998 1.11102 19.1007 0.266339 20.6684 0.338226C22.2721 0.446057 22.9389 1.14696 22.9389 2.72848ZM87.7181 12.9542H87.2316H80.7987H80.3302V11.9657V11.7501V10.7077H80.8888C82.4205 10.7257 83.9521 10.7257 85.4837 10.7077C86.3847 10.7077 87.1415 10.1865 87.4118 9.41374C87.6821 8.64095 87.4839 7.83221 86.8532 7.29306C86.4388 6.93362 85.9342 6.80782 85.3937 6.80782H80.7627H80.3302V4.56134H80.7807H82.3123C84.0963 4.56134 85.8802 4.56133 87.6641 4.54336C88.6912 4.52539 89.43 3.91435 89.6462 3.03373C90.0607 1.36234 89.1056 0.158231 87.3758 0.140259H77.9337C76.384 0.140259 75.5731 0.948992 75.5731 2.49457V8.76675V15.1647C75.5731 16.5306 76.3299 17.3393 77.6994 17.3573C79.4016 17.3842 81.0937 17.3809 82.7908 17.3775H82.7909C83.3574 17.3764 83.9245 17.3753 84.4927 17.3753C84.7234 17.3753 84.954 17.376 85.1847 17.3767C86.1072 17.3796 87.0298 17.3825 87.9524 17.3393C88.7813 17.3034 89.43 16.9439 89.7724 16.1532C90.4751 14.5357 89.484 12.9901 87.7181 12.9542ZM79.8257 6.7539V6.77187C79.8167 6.77187 79.8167 6.77187 79.8189 6.76963C79.8212 6.76738 79.8257 6.76289 79.8257 6.7539ZM1.06314 0.643635C2.03618 0.212311 3.02725 0.212311 3.94623 0.78741C4.55889 1.18279 4.7571 1.81181 4.73908 2.51271V8.87475V14.9672C4.73908 16.5487 3.89218 17.3754 2.30647 17.3215C0.756812 17.2856 0.0180193 16.5128 0.0180193 14.9672C0 10.8876 0 6.82595 0 2.74634C0 1.86572 0.162174 1.03902 1.06314 0.643635Z" fill="black"/>
</svg>
