<svg width="456" height="88" viewBox="0 0 456 88" fill="none" xmlns="http://www.w3.org/2000/svg">
<mask id="path-1-inside-1_278_55" fill="white">
<path fill-rule="evenodd" clip-rule="evenodd" d="M351.54 7.26237C354.916 0.528545 363.128 -1.92839 369.697 1.62052C374.076 3.98646 376.083 8.35434 374.988 13.0862C374.207 16.2649 373.029 19.325 371.846 22.3968L371.846 22.397C371.234 23.9858 370.621 25.5778 370.062 27.1909C366.218 38.1815 362.284 49.1272 358.354 60.0596L358.348 60.0778L358.344 60.089C356.681 64.7154 355.019 69.3395 353.365 73.9636C349.898 83.6094 344.059 87.7043 333.749 87.7043H325.994C320.337 87.7953 316.505 85.3383 313.585 80.7885C311.596 77.597 310.591 74.1603 309.559 70.6334C309.502 70.4394 309.445 70.2452 309.388 70.0507L308.567 67.5938H294.882H291.414H278.094C278.069 67.6684 278.042 67.7464 278.014 67.8279C277.995 67.8839 277.975 67.9415 277.954 68.0009C277.785 68.4894 277.575 69.0982 277.364 69.8688C277.28 70.1373 277.198 70.4059 277.115 70.6744C276.018 74.226 274.929 77.7555 272.893 80.9705C269.974 85.4293 266.142 87.7043 260.576 87.7043C257.748 87.7194 254.917 87.737 252.084 87.7545L252.075 87.7546H252.074H252.074C237.823 87.8432 223.53 87.932 209.3 87.7043C202.366 87.6133 198.534 83.5184 198.534 76.6026C198.473 68.2341 198.494 59.8253 198.514 51.403V51.3941V51.3852C198.524 47.1749 198.534 42.9612 198.534 38.7476V35.4716V26.2809V26.0989V23.096H195.25H157.203C156.583 23.096 156.079 23.1252 155.643 23.1505C155.31 23.1699 155.017 23.187 154.74 23.187V36.8366H156.382C160.333 36.776 164.323 36.7961 168.328 36.8163C170.335 36.8265 172.346 36.8366 174.356 36.8366C175.451 36.8366 176.637 36.9276 177.732 37.1096C183.662 38.1106 187.038 42.0235 186.856 47.9383C186.673 53.6712 183.206 57.6751 177.367 58.2211C170.707 58.858 157.295 58.494 157.295 58.494H154.193V61.406V61.588V75.8746C154.557 84.2464 148.809 87.9773 141.145 87.5223C133.481 87.0673 130.197 83.4274 130.197 75.6926V13.1772C130.197 5.53342 134.029 1.62052 141.784 1.52952C149.141 1.46888 156.457 1.48906 163.786 1.50927C167.456 1.51939 171.129 1.52952 174.812 1.52952C178.158 1.52952 181.503 1.51941 184.849 1.5093C191.539 1.48908 198.23 1.46885 204.921 1.52952C207.749 1.62052 210.486 1.80251 213.315 2.07551C218.972 2.71249 222.439 6.71638 222.439 12.6312V52.0332V66.5928H225.906H250.266C250.972 66.5928 251.581 66.5606 252.074 66.5345H252.075L252.075 66.5344C252.41 66.5167 252.691 66.5018 252.912 66.5018L256.653 56.7651C261.853 42.9334 267.145 29.1018 272.437 15.2702C272.893 13.9052 273.441 12.5402 274.079 11.2663C277.546 3.98646 283.294 0.255552 291.414 0.255552C291.855 0.255552 292.293 0.251863 292.727 0.248199C294.449 0.233664 296.125 0.219522 297.801 0.437548C304.553 1.25653 309.206 4.89643 312.034 10.8113C314.018 14.9006 315.619 19.2289 317.218 23.5537C317.825 25.1957 318.432 26.8371 319.06 28.4648C322.892 38.2926 326.632 48.2113 330.282 58.1301C330.647 59.131 330.921 59.677 331.194 60.132H335.117C335.181 59.9405 335.245 59.7267 335.317 59.4865L335.317 59.4863C335.45 59.0417 335.61 58.5069 335.847 57.8571C340.501 42.3875 345.154 26.9179 349.898 11.4483C350.354 10.0833 350.902 8.62734 351.54 7.26237ZM291.414 26.5539C291.232 26.8269 291.049 27.2819 290.867 27.9188C288.86 34.3797 286.761 40.7495 284.663 47.0283L284.663 47.0289L284.662 47.0297C284.389 47.8479 284.207 48.3935 284.207 48.6663H302.363C302.272 48.3933 302.089 47.8473 301.816 46.9373C299.717 40.6585 297.71 34.4707 295.794 28.1918C295.638 27.8288 295.541 27.4954 295.453 27.1915L295.453 27.1908L295.453 27.1905L295.453 27.19C295.386 26.9612 295.325 26.7491 295.246 26.5539H291.414ZM116.148 13.8158V44.6639C116.148 48.0646 116.138 51.4652 116.127 54.8624C116.107 61.6468 116.087 68.4177 116.148 75.1481C116.239 79.88 115.327 84.2479 110.491 86.2499C105.108 88.5248 99.9074 88.1608 95.2543 84.3389C92.8821 82.337 90.8749 79.88 89.0501 77.4231C85.4464 72.555 81.82 67.7097 78.1935 62.8644L78.1927 62.8634L78.1906 62.8606C74.5646 58.0159 70.9387 53.1713 67.3355 48.3038C66.9705 47.8489 66.6968 47.4849 66.5143 47.2119H62.0437V49.3048C62.0437 51.8236 62.0288 54.3498 62.0139 56.8791V56.8792V56.8793C61.9767 63.2137 61.9393 69.5682 62.1349 75.8761C62.3174 83.5199 58.1204 87.7058 50.1827 87.7058C42.1538 87.7968 38.0481 83.3379 38.1393 75.9671C38.3218 55.4927 38.2305 34.9272 38.1393 14.3617C38.1393 9.44787 39.0517 5.07998 43.9785 3.07803C49.3616 0.894088 54.7446 1.25808 59.3065 5.26197C62.2025 7.76523 64.4176 10.8118 66.6562 13.8907C67.5913 15.1768 68.5305 16.4685 69.5252 17.7286C71.239 20.0348 72.9528 22.3491 74.669 24.6666L74.6692 24.6669C78.709 30.1221 82.7622 35.5955 86.8604 41.024C86.982 41.1757 87.0936 41.3375 87.2051 41.4993C87.4281 41.8228 87.6511 42.1463 87.9552 42.389H92.061C92.1522 41.8431 92.1522 41.1152 92.1522 40.2053V40.2051V13.4518C92.1522 5.62596 96.7141 1.34908 104.652 1.71307C112.772 2.25905 116.148 5.80796 116.148 13.8158ZM444.147 65.5919H441.684H409.112H406.74V60.587V59.4951V54.2172H409.568C417.323 54.3082 425.078 54.3082 432.834 54.2172C437.396 54.2172 441.228 51.5783 442.596 47.6654C443.965 43.7525 442.961 39.6576 439.768 36.9277C437.669 35.1077 435.115 34.4707 432.377 34.4707H408.929H406.74V23.096H409.02H416.776C425.808 23.096 434.841 23.096 443.873 23.005C449.074 22.914 452.815 19.8201 453.91 15.3612C456.008 6.89844 451.172 0.8016 442.414 0.710602H394.605C386.758 0.710602 382.653 4.80549 382.653 12.6313V44.3895V76.7846C382.653 83.7004 386.485 87.7953 393.419 87.8863C402.038 88.0228 410.606 88.0058 419.199 87.9887H419.202C422.069 87.983 424.94 87.9773 427.816 87.9773C428.983 87.9773 430.151 87.981 431.319 87.9846H431.32C435.991 87.9992 440.662 88.0137 445.333 87.7953C449.53 87.6133 452.815 85.7934 454.548 81.7895C458.107 73.5997 453.088 65.7739 444.147 65.5919ZM404.185 34.1977V34.2887C404.156 34.2887 404.145 34.2887 404.144 34.2858C404.144 34.2841 404.147 34.2815 404.151 34.2773C404.162 34.266 404.185 34.2432 404.185 34.1977ZM5.38304 3.26051C10.3099 1.07657 15.328 1.07657 19.9811 3.98849C23.0832 5.99044 24.0868 9.17536 23.9956 12.7243V44.9374V75.7856C23.9956 83.7934 19.7074 87.9793 11.6785 87.7063C3.832 87.5243 0.091238 83.6114 0.091238 75.7856C0 55.1292 0 34.5637 0 13.9072C0 9.44835 0.821142 5.26246 5.38304 3.26051Z"/>
</mask>
<path d="M369.697 1.62052L370.172 0.7407V0.740699L369.697 1.62052ZM351.54 7.26237L350.646 6.81421L350.64 6.82631L350.635 6.83857L351.54 7.26237ZM374.988 13.0862L375.96 13.3251L375.963 13.3116L374.988 13.0862ZM371.846 22.3968L372.771 22.7764L372.775 22.7663L372.779 22.7561L371.846 22.3968ZM371.846 22.397L370.921 22.0175L370.917 22.0276L370.913 22.0377L371.846 22.397ZM370.062 27.1909L371.006 27.521L371.006 27.5187L370.062 27.1909ZM358.354 60.0596L357.413 59.7213L357.413 59.7233L358.354 60.0596ZM358.348 60.0778L359.289 60.4167L359.29 60.414L358.348 60.0778ZM358.344 60.089L357.403 59.75L357.403 59.7507L358.344 60.089ZM353.365 73.9636L354.306 74.3019L354.307 74.3004L353.365 73.9636ZM325.994 87.7043V86.7043H325.986L325.978 86.7044L325.994 87.7043ZM313.585 80.7885L312.737 81.3175L312.744 81.3285L313.585 80.7885ZM309.559 70.6334L308.599 70.9141V70.9142L309.559 70.6334ZM309.388 70.0507L310.348 69.7692L310.343 69.7514L310.337 69.7338L309.388 70.0507ZM308.567 67.5938L309.516 67.2768L309.287 66.5938H308.567V67.5938ZM278.094 67.5938V66.5938H277.373L277.145 67.2771L278.094 67.5938ZM278.014 67.8279L278.96 68.1535L278.96 68.1533L278.014 67.8279ZM277.954 68.0009L277.009 67.6738V67.6738L277.954 68.0009ZM277.364 69.8688L278.319 70.1651L278.324 70.1489L278.328 70.1325L277.364 69.8688ZM277.115 70.6744L278.07 70.9693L278.07 70.9693L277.115 70.6744ZM272.893 80.9705L273.73 81.5183L273.734 81.5119L273.738 81.5055L272.893 80.9705ZM260.576 87.7043V86.7043L260.571 86.7043L260.576 87.7043ZM252.084 87.7545L252.078 86.7546H252.077L252.084 87.7545ZM252.075 87.7546V88.7546L252.082 88.7546L252.075 87.7546ZM252.074 87.7546V86.7546L252.068 86.7546L252.074 87.7546ZM209.3 87.7043L209.316 86.7044L209.313 86.7044L209.3 87.7043ZM198.534 76.6026H199.534L199.534 76.5953L198.534 76.6026ZM198.514 51.403L199.514 51.4054V51.403H198.514ZM198.514 51.3852L197.514 51.3828V51.3852H198.514ZM198.534 23.096H199.534V22.096H198.534V23.096ZM155.643 23.1505L155.585 22.1522L155.643 23.1505ZM154.74 23.187V22.187H153.74V23.187H154.74ZM154.74 36.8366H153.74V37.8366H154.74V36.8366ZM156.382 36.8366V37.8366H156.39L156.398 37.8365L156.382 36.8366ZM168.328 36.8163L168.323 37.8163L168.328 36.8163ZM177.732 37.1096L177.898 36.1235L177.896 36.1231L177.732 37.1096ZM186.856 47.9383L187.855 47.9701L187.855 47.9692L186.856 47.9383ZM177.367 58.2211L177.274 57.2254L177.272 57.2256L177.367 58.2211ZM157.295 58.494L157.322 57.4944L157.308 57.494H157.295V58.494ZM154.193 58.494V57.494H153.193V58.494H154.193ZM154.193 75.8746H153.193V75.8964L153.193 75.9182L154.193 75.8746ZM141.145 87.5223L141.205 86.524L141.145 87.5223ZM141.784 1.52952L141.776 0.529547L141.772 0.529588L141.784 1.52952ZM163.786 1.50927L163.783 2.50927L163.786 1.50927ZM184.849 1.5093L184.852 2.50929L184.849 1.5093ZM204.921 1.52952L204.953 0.530037L204.941 0.529665L204.93 0.52956L204.921 1.52952ZM213.315 2.07551L213.427 1.08179L213.419 1.0809L213.411 1.08013L213.315 2.07551ZM222.439 66.5928H221.439V67.5928H222.439V66.5928ZM252.074 66.5345V65.5345H252.048L252.021 65.5359L252.074 66.5345ZM252.075 66.5345V67.5345H252.102L252.13 67.5329L252.075 66.5345ZM252.075 66.5344L252.022 65.5358L252.02 65.536L252.075 66.5344ZM252.912 66.5018V67.5018H253.599L253.846 66.8605L252.912 66.5018ZM256.653 56.7651L257.586 57.1237L257.589 57.117L256.653 56.7651ZM272.437 15.2702L273.371 15.6275L273.379 15.6075L273.385 15.5871L272.437 15.2702ZM274.079 11.2663L274.973 11.7144L274.978 11.7054L274.982 11.6962L274.079 11.2663ZM292.727 0.248199L292.735 1.24816L292.727 0.248199ZM297.801 0.437548L297.672 1.42923L297.681 1.43027L297.801 0.437548ZM312.034 10.8113L311.132 11.2427L311.135 11.2478L312.034 10.8113ZM317.218 23.5537L316.28 23.9005L317.218 23.5537ZM319.06 28.4648L318.127 28.8246L318.128 28.8281L319.06 28.4648ZM330.282 58.1301L331.221 57.7875L331.22 57.7847L330.282 58.1301ZM331.194 60.132L330.337 60.6475L330.629 61.132H331.194V60.132ZM335.117 60.132V61.132H335.838L336.066 60.449L335.117 60.132ZM335.317 59.4865L334.378 59.1448L334.368 59.172L334.359 59.1998L335.317 59.4865ZM335.317 59.4863L336.257 59.828L336.267 59.8007L336.275 59.7729L335.317 59.4863ZM335.847 57.8571L336.787 58.1996L336.797 58.1726L336.805 58.1451L335.847 57.8571ZM349.898 11.4483L348.95 11.1313L348.946 11.1431L348.942 11.1551L349.898 11.4483ZM290.867 27.9188L291.822 28.2155L291.825 28.2049L291.828 28.1942L290.867 27.9188ZM291.414 26.5539V25.5539H290.88L290.583 25.9982L291.414 26.5539ZM284.663 47.0283L285.61 47.3506L285.611 47.3453L284.663 47.0283ZM284.663 47.0289L283.716 46.7066L283.713 46.7153L283.71 46.7241L284.663 47.0289ZM284.662 47.0297L285.611 47.3467L285.615 47.3345L284.662 47.0297ZM284.207 48.6663H283.207V49.6663H284.207V48.6663ZM302.363 48.6663V49.6663H303.752L303.311 48.3493L302.363 48.6663ZM301.816 46.9373L302.773 46.6493L302.769 46.6348L302.764 46.6204L301.816 46.9373ZM295.794 28.1918L296.75 27.9L296.734 27.8475L296.713 27.797L295.794 28.1918ZM295.453 27.1915L294.485 27.4414L294.488 27.4558L294.493 27.4701L295.453 27.1915ZM295.453 27.1908L296.421 26.9409L296.419 26.9332L295.453 27.1908ZM295.453 27.1905L296.419 26.9328L296.409 26.8937L296.395 26.8555L295.453 27.1905ZM295.453 27.19L294.492 27.4685L294.5 27.497L294.51 27.525L295.453 27.19ZM295.246 26.5539L296.175 26.1817L295.923 25.5539H295.246V26.5539ZM116.127 54.8624L117.127 54.8654L116.127 54.8624ZM116.148 75.1481L115.148 75.1572L115.148 75.1674L116.148 75.1481ZM110.491 86.2499L110.109 85.3259L110.102 85.3287L110.491 86.2499ZM95.2543 84.3389L94.6093 85.1032L94.6196 85.1117L95.2543 84.3389ZM89.0501 77.4231L88.2464 78.0181L88.2473 78.0193L89.0501 77.4231ZM78.1935 62.8644L77.3924 63.463L77.3929 63.4636L78.1935 62.8644ZM78.1927 62.8634L78.9938 62.2648L78.9931 62.2639L78.1927 62.8634ZM78.1906 62.8606L77.39 63.4598L77.3902 63.4601L78.1906 62.8606ZM67.3355 48.3038L68.1392 47.7089L68.1277 47.6933L68.1155 47.6781L67.3355 48.3038ZM66.5143 47.2119L67.3457 46.6562L67.0487 46.2119H66.5143V47.2119ZM62.0437 47.2119V46.2119H61.0437V47.2119H62.0437ZM62.0139 56.8791L61.0139 56.8732V56.8791H62.0139ZM62.0139 56.8793L63.0139 56.8851V56.8793H62.0139ZM62.1349 75.8761L63.1346 75.8523L63.1344 75.8451L62.1349 75.8761ZM50.1827 87.7058V86.7058L50.1714 86.7059L50.1827 87.7058ZM38.1393 75.9671L39.1392 75.9795L39.1393 75.976L38.1393 75.9671ZM38.1393 14.3617H37.1393L37.1393 14.3662L38.1393 14.3617ZM43.9785 3.07803L43.6026 2.15139L43.6021 2.15159L43.9785 3.07803ZM59.3065 5.26197L58.6468 6.01357L58.6526 6.01852L59.3065 5.26197ZM66.6562 13.8907L67.465 13.3026V13.3026L66.6562 13.8907ZM69.5252 17.7286L70.3278 17.1322L70.3191 17.1205L70.3101 17.1091L69.5252 17.7286ZM74.669 24.6666L75.4859 24.0899L75.4794 24.0806L75.4726 24.0715L74.669 24.6666ZM74.6692 24.6669L73.8522 25.2436L73.8588 25.2529L73.8655 25.262L74.6692 24.6669ZM86.8604 41.024L86.0623 41.6266L86.0711 41.6383L86.0803 41.6497L86.8604 41.024ZM87.2051 41.4993L86.3817 42.0668L86.3817 42.0668L87.2051 41.4993ZM87.9552 42.389L87.3316 43.1707L87.6052 43.389H87.9552V42.389ZM92.061 42.389V43.389H92.9077L93.0473 42.5538L92.061 42.389ZM104.652 1.71307L104.719 0.71532L104.708 0.714605L104.698 0.714117L104.652 1.71307ZM444.147 65.5919L444.167 64.5921L444.157 64.5919H444.147V65.5919ZM406.74 65.5919H405.74V66.5919H406.74V65.5919ZM406.74 54.2172V53.2172H405.74V54.2172H406.74ZM409.568 54.2172L409.58 53.2172H409.568V54.2172ZM432.834 54.2172V53.2171L432.822 53.2173L432.834 54.2172ZM442.596 47.6654L443.54 47.9955V47.9955L442.596 47.6654ZM439.768 36.9277L439.112 37.6831L439.118 37.6878L439.768 36.9277ZM406.74 34.4707H405.74V35.4707H406.74V34.4707ZM406.74 23.096V22.096H405.74V23.096H406.74ZM443.873 23.005L443.883 24.005L443.891 24.0049L443.873 23.005ZM453.91 15.3612L452.939 15.1205L452.938 15.1228L453.91 15.3612ZM442.414 0.710602L442.424 -0.289398H442.414V0.710602ZM393.419 87.8863L393.435 86.8865L393.432 86.8864L393.419 87.8863ZM419.199 87.9887V86.9887H419.197L419.199 87.9887ZM419.202 87.9887V88.9887H419.204L419.202 87.9887ZM431.319 87.9846L431.316 88.9846H431.319V87.9846ZM431.32 87.9846L431.323 86.9846H431.32V87.9846ZM445.333 87.7953L445.29 86.7963L445.287 86.7964L445.333 87.7953ZM454.548 81.7895L453.631 81.391L453.631 81.3922L454.548 81.7895ZM404.185 34.2887V35.2887H405.185V34.2887H404.185ZM404.144 34.2858L405.102 33.997L405.1 33.9905L404.144 34.2858ZM404.151 34.2773L403.445 33.5691L403.445 33.5693L404.151 34.2773ZM19.9811 3.98849L20.5234 3.14819L20.5116 3.1408L19.9811 3.98849ZM5.38304 3.26051L5.78489 4.17622L5.78829 4.17472L5.38304 3.26051ZM23.9956 12.7243L22.9959 12.6986L22.9956 12.7114V12.7243H23.9956ZM11.6785 87.7063L11.7124 86.7068L11.7017 86.7066L11.6785 87.7063ZM0.091238 75.7856H1.09125L1.09123 75.7812L0.091238 75.7856ZM370.172 0.740699C363.119 -3.06967 354.281 -0.436654 350.646 6.81421L352.434 7.71053C355.551 1.49374 363.136 -0.787114 369.221 2.50033L370.172 0.740699ZM375.963 13.3116C377.162 8.1282 374.936 3.31436 370.172 0.7407L369.221 2.50033C373.216 4.65856 375.005 8.58049 374.014 12.8608L375.963 13.3116ZM372.779 22.7561C373.958 19.6944 375.16 16.5754 375.96 13.325L374.017 12.8474C373.253 15.9544 372.099 18.9557 370.913 22.0375L372.779 22.7561ZM372.771 22.7766L372.771 22.7764L370.921 22.0172L370.921 22.0175L372.771 22.7766ZM371.006 27.5187C371.56 25.9241 372.167 24.3477 372.779 22.7563L370.913 22.0377C370.302 23.624 369.683 25.2315 369.117 26.863L371.006 27.5187ZM359.295 60.3978C363.224 49.4661 367.16 38.5163 371.006 27.521L369.118 26.8607C365.275 37.8466 361.343 48.7883 357.413 59.7213L359.295 60.3978ZM359.29 60.414L359.296 60.3958L357.413 59.7233L357.406 59.7416L359.29 60.414ZM359.285 60.4279L359.289 60.4167L357.407 59.7388L357.403 59.75L359.285 60.4279ZM354.307 74.3004C355.96 69.6772 357.622 65.0538 359.285 60.4272L357.403 59.7507C355.74 64.3771 354.078 69.0019 352.423 73.6269L354.307 74.3004ZM333.749 88.7043C339.033 88.7043 343.293 87.6547 346.697 85.2701C350.101 82.8851 352.528 79.2478 354.306 74.3019L352.424 73.6254C350.735 78.3253 348.509 81.5583 345.549 83.6321C342.589 85.7064 338.775 86.7043 333.749 86.7043V88.7043ZM325.994 88.7043H333.749V86.7043H325.994V88.7043ZM312.744 81.3285C314.266 83.7016 316.062 85.5823 318.263 86.8528C320.47 88.1267 323.026 88.7522 326.01 88.7042L325.978 86.7044C323.305 86.7474 321.116 86.1899 319.263 85.1206C317.404 84.0479 315.824 82.4252 314.427 80.2484L312.744 81.3285ZM308.599 70.9142C309.625 74.422 310.664 77.9913 312.737 81.3174L314.434 80.2595C312.529 77.2028 311.556 73.8987 310.519 70.3526L308.599 70.9142ZM308.429 70.3323C308.486 70.5263 308.542 70.7202 308.599 70.9141L310.519 70.3526C310.462 70.1587 310.405 69.9641 310.348 69.7692L308.429 70.3323ZM307.619 67.9108L308.44 70.3677L310.337 69.7338L309.516 67.2768L307.619 67.9108ZM294.882 68.5938H308.567V66.5938H294.882V68.5938ZM291.414 68.5938H294.882V66.5938H291.414V68.5938ZM278.094 68.5938H291.414V66.5938H278.094V68.5938ZM278.96 68.1533C278.988 68.0707 279.016 67.9894 279.042 67.9106L277.145 67.2771C277.122 67.3473 277.096 67.422 277.069 67.5026L278.96 68.1533ZM278.899 68.3281C278.92 68.2689 278.94 68.2104 278.96 68.1535L277.069 67.5024C277.05 67.5574 277.03 67.6141 277.009 67.6738L278.899 68.3281ZM278.328 70.1325C278.53 69.3966 278.731 68.8149 278.899 68.328L277.009 67.6738C276.84 68.164 276.619 68.7998 276.399 69.605L278.328 70.1325ZM278.07 70.9693C278.153 70.7007 278.236 70.4328 278.319 70.1651L276.409 69.5724C276.325 69.8418 276.242 70.1111 276.159 70.3794L278.07 70.9693ZM273.738 81.5055C275.857 78.1599 276.98 74.5013 278.07 70.9693L276.159 70.3794C275.057 73.9507 274.001 77.3512 272.048 80.4355L273.738 81.5055ZM260.576 88.7043C263.5 88.7043 266.023 88.1052 268.214 86.8828C270.403 85.6617 272.202 83.8517 273.73 81.5183L272.057 80.4227C270.665 82.5481 269.088 84.105 267.24 85.1361C265.394 86.1659 263.218 86.7043 260.576 86.7043V88.7043ZM252.091 88.7545C254.923 88.7369 257.754 88.7194 260.581 88.7043L260.571 86.7043C257.742 86.7194 254.911 86.737 252.078 86.7546L252.091 88.7545ZM252.082 88.7546L252.092 88.7545L252.077 86.7546L252.068 86.7546L252.082 88.7546ZM252.074 88.7546H252.075V86.7546H252.074V88.7546ZM252.074 88.7546H252.074V86.7546H252.074V88.7546ZM209.284 88.7042C223.527 88.9321 237.831 88.8431 252.08 88.7546L252.068 86.7546C237.815 86.8432 223.533 86.9319 209.316 86.7044L209.284 88.7042ZM197.534 76.6026C197.534 80.2408 198.545 83.2702 200.596 85.4055C202.651 87.5449 205.625 88.6561 209.287 88.7042L209.313 86.7044C206.041 86.6614 203.632 85.6797 202.038 84.02C200.44 82.3562 199.534 79.8801 199.534 76.6026H197.534ZM197.514 51.4006C197.494 59.8221 197.473 68.2358 197.534 76.6098L199.534 76.5953C199.473 68.2325 199.494 59.8285 199.514 51.4054L197.514 51.4006ZM197.514 51.3941V51.403H199.514V51.3941H197.514ZM197.514 51.3852V51.3941H199.514V51.3852H197.514ZM197.534 38.7476C197.534 42.9598 197.524 47.1723 197.514 51.3828L199.514 51.3876C199.524 47.1775 199.534 42.9626 199.534 38.7476H197.534ZM197.534 35.4716V38.7476H199.534V35.4716H197.534ZM197.534 26.2809V35.4716H199.534V26.2809H197.534ZM197.534 26.0989V26.2809H199.534V26.0989H197.534ZM197.534 23.096V26.0989H199.534V23.096H197.534ZM195.25 24.096H198.534V22.096H195.25V24.096ZM157.203 24.096H195.25V22.096H157.203V24.096ZM155.701 24.1489C156.136 24.1236 156.614 24.096 157.203 24.096V22.096C156.551 22.096 156.022 22.1269 155.585 22.1522L155.701 24.1489ZM154.74 24.187C155.051 24.187 155.375 24.1678 155.701 24.1489L155.585 22.1522C155.245 22.172 154.982 22.187 154.74 22.187V24.187ZM155.74 36.8366V23.187H153.74V36.8366H155.74ZM156.382 35.8366H154.74V37.8366H156.382V35.8366ZM168.333 35.8163C164.33 35.7962 160.329 35.7759 156.367 35.8367L156.398 37.8365C160.336 37.7761 164.316 37.7961 168.323 37.8163L168.333 35.8163ZM174.356 35.8366C172.348 35.8366 170.34 35.8265 168.333 35.8163L168.323 37.8163C170.329 37.8264 172.343 37.8366 174.356 37.8366V35.8366ZM177.896 36.1231C176.743 35.9315 175.502 35.8366 174.356 35.8366V37.8366C175.4 37.8366 176.531 37.9237 177.568 38.0961L177.896 36.1231ZM187.855 47.9692C187.953 44.8093 187.098 42.0977 185.349 40.0345C183.603 37.9753 181.044 36.6545 177.898 36.1235L177.566 38.0956C180.35 38.5657 182.445 39.7018 183.823 41.328C185.199 42.9502 185.941 45.1525 185.856 47.9075L187.855 47.9692ZM177.46 59.2167C180.594 58.9236 183.164 57.6912 184.973 55.6965C186.779 53.7059 187.758 51.0316 187.855 47.9701L185.856 47.9065C185.771 50.5779 184.926 52.772 183.492 54.353C182.062 55.9299 179.979 56.9725 177.274 57.2254L177.46 59.2167ZM157.295 58.494C157.267 59.4937 157.268 59.4937 157.268 59.4937C157.268 59.4937 157.268 59.4937 157.268 59.4937C157.269 59.4937 157.269 59.4937 157.27 59.4938C157.272 59.4938 157.274 59.4939 157.278 59.494C157.284 59.4941 157.294 59.4944 157.307 59.4947C157.333 59.4954 157.371 59.4964 157.422 59.4977C157.522 59.5002 157.67 59.5038 157.861 59.5082C158.242 59.5169 158.794 59.5287 159.477 59.5408C160.842 59.565 162.731 59.5907 164.83 59.5964C169.015 59.6078 174.077 59.5402 177.462 59.2165L177.272 57.2256C173.996 57.5389 169.023 57.6078 164.836 57.5964C162.749 57.5908 160.87 57.5652 159.512 57.5411C158.833 57.5291 158.285 57.5174 157.907 57.5087C157.718 57.5044 157.571 57.5008 157.472 57.4983C157.422 57.497 157.385 57.4961 157.359 57.4954C157.347 57.4951 157.337 57.4948 157.331 57.4947C157.328 57.4946 157.326 57.4945 157.324 57.4945C157.323 57.4945 157.323 57.4944 157.322 57.4944C157.322 57.4944 157.322 57.4944 157.322 57.4944C157.322 57.4944 157.322 57.4944 157.295 58.494ZM154.193 59.494H157.295V57.494H154.193V59.494ZM155.193 61.406V58.494H153.193V61.406H155.193ZM155.193 61.588V61.406H153.193V61.588H155.193ZM155.193 75.8746V61.588H153.193V75.8746H155.193ZM141.086 88.5205C145.077 88.7574 148.708 87.9142 151.313 85.7824C153.951 83.6237 155.385 80.2689 155.192 75.831L153.193 75.9182C153.365 79.8521 152.107 82.5486 150.047 84.2345C147.953 85.9474 144.878 86.7421 141.205 86.524L141.086 88.5205ZM129.197 75.6926C129.197 79.6805 130.041 82.8186 132.061 85.0145C134.086 87.2153 137.122 88.2852 141.086 88.5205L141.205 86.524C137.505 86.3044 135.066 85.3269 133.533 83.6603C131.995 81.9887 131.197 79.4395 131.197 75.6926H129.197ZM129.197 13.1772V75.6926H131.197V13.1772H129.197ZM141.772 0.529588C137.74 0.576899 134.549 1.62058 132.372 3.81719C130.195 6.01428 129.197 9.19953 129.197 13.1772H131.197C131.197 9.51111 132.115 6.91801 133.793 5.22494C135.471 3.5314 138.073 2.57314 141.796 2.52945L141.772 0.529588ZM163.789 0.509274C156.46 0.489064 149.139 0.468863 141.776 0.529553L141.792 2.52949C149.142 2.4689 156.453 2.48905 163.783 2.50927L163.789 0.509274ZM174.812 0.529519C171.131 0.529519 167.459 0.519394 163.789 0.509274L163.783 2.50927C167.453 2.51939 171.127 2.52952 174.812 2.52952V0.529519ZM184.845 0.509302C181.5 0.519414 178.156 0.529519 174.812 0.529519V2.52952C178.159 2.52952 181.506 2.5194 184.852 2.50929L184.845 0.509302ZM204.93 0.52956C198.232 0.468832 191.535 0.489084 184.845 0.509302L184.852 2.50929C191.543 2.48907 198.228 2.46888 204.912 2.52948L204.93 0.52956ZM213.411 1.08013C210.563 0.805232 207.804 0.621768 204.953 0.530037L204.889 2.529C207.694 2.61927 210.41 2.79979 213.219 3.07088L213.411 1.08013ZM223.439 12.6312C223.439 9.47653 222.511 6.75175 220.754 4.72006C218.995 2.68533 216.471 1.42456 213.427 1.08179L213.203 3.06922C215.816 3.36344 217.853 4.4231 219.242 6.02828C220.632 7.63649 221.439 9.87108 221.439 12.6312H223.439ZM223.439 52.0332V12.6312H221.439V52.0332H223.439ZM223.439 66.5928V52.0332H221.439V66.5928H223.439ZM225.906 65.5928H222.439V67.5928H225.906V65.5928ZM250.266 65.5928H225.906V67.5928H250.266V65.5928ZM252.021 65.5359C251.528 65.562 250.943 65.5928 250.266 65.5928V67.5928C251.002 67.5928 251.634 67.5592 252.127 67.5331L252.021 65.5359ZM252.075 65.5345H252.074V67.5345H252.075V65.5345ZM252.02 65.536L252.019 65.536L252.13 67.5329L252.13 67.5329L252.02 65.536ZM252.912 65.5018C252.658 65.5018 252.347 65.5186 252.022 65.5358L252.128 67.533C252.473 67.5148 252.723 67.5018 252.912 67.5018V65.5018ZM255.719 56.4065L251.979 66.1432L253.846 66.8605L257.586 57.1237L255.719 56.4065ZM271.503 14.9128C266.211 28.744 260.919 42.5784 255.717 56.4132L257.589 57.117C262.788 43.2885 268.079 29.4596 273.371 15.6275L271.503 14.9128ZM273.185 10.8181C272.522 12.1417 271.957 13.5517 271.489 14.9532L273.385 15.5871C273.829 14.2587 274.359 12.9387 274.973 11.7144L273.185 10.8181ZM291.414 -0.744448C287.197 -0.744448 283.536 0.226237 280.464 2.18818C277.393 4.14949 274.975 7.06001 273.176 10.8363L274.982 11.6962C276.651 8.19271 278.84 5.59788 281.54 3.87378C284.239 2.15032 287.512 1.25555 291.414 1.25555V-0.744448ZM292.718 -0.751766C292.283 -0.748096 291.85 -0.744448 291.414 -0.744448V1.25555C291.86 1.25555 292.302 1.25182 292.735 1.24816L292.718 -0.751766ZM297.93 -0.554096C296.174 -0.782511 294.429 -0.766201 292.718 -0.751766L292.735 1.24816C294.469 1.23353 296.076 1.22156 297.672 1.42919L297.93 -0.554096ZM312.936 10.3799C309.971 4.17834 305.036 0.307795 297.922 -0.555176L297.681 1.43027C304.07 2.20526 308.441 5.61452 311.132 11.2427L312.936 10.3799ZM318.156 23.2069C316.56 18.8903 314.943 14.5155 312.934 10.3748L311.135 11.2478C313.094 15.2857 314.678 19.5675 316.28 23.9005L318.156 23.2069ZM319.993 28.105C319.368 26.4849 318.763 24.8499 318.156 23.2069L316.28 23.9005C316.887 25.5414 317.496 27.1894 318.127 28.8246L319.993 28.105ZM331.22 57.7847C327.569 47.861 323.826 37.9362 319.991 28.1015L318.128 28.8281C321.957 38.649 325.696 48.5616 329.343 58.4754L331.22 57.7847ZM332.051 59.6165C331.817 59.2272 331.569 58.7415 331.221 57.7875L329.342 58.4726C329.724 59.5206 330.024 60.1268 330.337 60.6475L332.051 59.6165ZM335.117 59.132H331.194V61.132H335.117V59.132ZM334.359 59.1998C334.286 59.4441 334.227 59.6416 334.169 59.815L336.066 60.449C336.136 60.2394 336.205 60.0093 336.275 59.7732L334.359 59.1998ZM334.378 59.1445L334.378 59.1448L336.257 59.8283L336.257 59.828L334.378 59.1445ZM334.908 57.5145C334.66 58.1944 334.493 58.7538 334.359 59.1996L336.275 59.7729C336.408 59.3295 336.561 58.8194 336.787 58.1996L334.908 57.5145ZM348.942 11.1551C344.197 26.6277 339.543 42.0998 334.89 57.569L336.805 58.1451C341.458 42.6751 346.111 27.2081 350.854 11.7415L348.942 11.1551ZM350.635 6.83857C349.975 8.24921 349.413 9.7435 348.95 11.1313L350.846 11.7652C351.295 10.4231 351.829 9.00546 352.446 7.68618L350.635 6.83857ZM291.828 28.1942C292.005 27.577 292.154 27.2473 292.246 27.1096L290.583 25.9982C290.31 26.4064 290.094 26.9867 289.906 27.6435L291.828 28.1942ZM285.611 47.3453C287.71 41.0643 289.812 34.6865 291.822 28.2155L289.912 27.6221C287.908 34.0728 285.812 40.4347 283.714 46.7114L285.611 47.3453ZM285.609 47.3511L285.61 47.3506L283.716 46.7061L283.716 46.7066L285.609 47.3511ZM285.615 47.3345L285.615 47.3337L283.71 46.7241L283.71 46.725L285.615 47.3345ZM285.207 48.6663C285.207 48.6915 285.209 48.6153 285.292 48.3332C285.365 48.0829 285.472 47.7627 285.611 47.3467L283.714 46.7128C283.58 47.115 283.458 47.4767 283.372 47.7719C283.295 48.0353 283.207 48.3683 283.207 48.6663H285.207ZM302.363 47.6663H284.207V49.6663H302.363V47.6663ZM300.858 47.2254C301.136 48.1486 301.322 48.705 301.415 48.9833L303.311 48.3493C303.222 48.0816 303.043 47.546 302.773 46.6493L300.858 47.2254ZM294.837 28.4837C296.757 34.7735 298.767 40.9701 300.867 47.2543L302.764 46.6204C300.667 40.3469 298.663 34.1679 296.75 27.9L294.837 28.4837ZM294.493 27.4701C294.58 27.7713 294.692 28.1599 294.875 28.5866L296.713 27.797C296.584 27.4978 296.502 27.2196 296.413 26.913L294.493 27.4701ZM294.485 27.4407L294.485 27.4414L296.421 26.9416L296.421 26.9409L294.485 27.4407ZM294.487 27.4481L294.487 27.4485L296.419 26.9332L296.419 26.9328L294.487 27.4481ZM294.51 27.525L294.511 27.5255L296.395 26.8555L296.395 26.8549L294.51 27.525ZM294.318 26.9261C294.375 27.0668 294.423 27.229 294.492 27.4685L296.413 26.9114C296.35 26.6934 296.275 26.4315 296.175 26.1817L294.318 26.9261ZM291.414 27.5539H295.246V25.5539H291.414V27.5539ZM117.148 44.6639V13.8158H115.148V44.6639H117.148ZM117.127 54.8654C117.138 51.4684 117.148 48.0663 117.148 44.6639H115.148C115.148 48.0628 115.138 51.462 115.127 54.8594L117.127 54.8654ZM117.148 75.1391C117.087 68.4157 117.107 61.6508 117.127 54.8654L115.127 54.8594C115.107 61.6428 115.087 68.4197 115.148 75.1572L117.148 75.1391ZM110.874 87.1738C113.54 86.0698 115.167 84.2819 116.087 82.1136C116.99 79.9875 117.194 77.546 117.148 75.1289L115.148 75.1674C115.193 77.4822 114.986 79.5906 114.247 81.3319C113.525 83.031 112.277 84.428 110.109 85.3259L110.874 87.1738ZM94.6196 85.1117C99.5986 89.2012 105.204 89.57 110.88 87.171L110.102 85.3287C105.012 87.4796 100.216 87.1204 95.889 83.5662L94.6196 85.1117ZM88.2473 78.0193C90.0859 80.4949 92.1478 83.0258 94.6093 85.1031L95.8992 83.5747C93.6164 81.6481 91.6638 79.2651 89.8529 76.8269L88.2473 78.0193ZM77.3929 63.4636C81.0196 68.3093 84.6445 73.1525 88.2464 78.0181L89.8538 76.8281C86.2484 71.9576 82.6203 67.1102 78.9941 62.2652L77.3929 63.4636ZM77.3917 63.462L77.3924 63.463L78.9946 62.2658L78.9938 62.2648L77.3917 63.462ZM77.3902 63.4601L77.3923 63.4629L78.9931 62.2639L78.991 62.2611L77.3902 63.4601ZM66.5317 48.8988C70.1367 53.7687 73.7643 58.6155 77.39 63.4598L78.9912 62.2614C75.365 57.4164 71.7406 52.5738 68.1392 47.7089L66.5317 48.8988ZM65.6829 47.7676C65.8893 48.0762 66.1839 48.4664 66.5554 48.9296L68.1155 47.6781C67.7571 47.2313 67.5043 46.8935 67.3457 46.6562L65.6829 47.7676ZM62.0437 48.2119H66.5143V46.2119H62.0437V48.2119ZM63.0437 49.3048V47.2119H61.0437V49.3048H63.0437ZM63.0139 56.885C63.0288 54.3561 63.0437 51.827 63.0437 49.3048H61.0437C61.0437 51.8202 61.0288 54.3434 61.0139 56.8732L63.0139 56.885ZM63.0139 56.8792V56.8791H61.0139V56.8792H63.0139ZM63.0139 56.8793V56.8792H61.0139V56.8793H63.0139ZM63.1344 75.8451C62.9395 69.5587 62.9766 63.2228 63.0139 56.8851L61.0139 56.8734C60.9767 63.2047 60.9391 69.5776 61.1354 75.9071L63.1344 75.8451ZM50.1827 88.7058C54.3173 88.7058 57.6424 87.6143 59.908 85.3674C62.1789 83.1154 63.2302 79.8569 63.1346 75.8523L61.1352 75.9C61.222 79.5392 60.2661 82.1955 58.4997 83.9474C56.728 85.7044 53.9858 86.7058 50.1827 86.7058V88.7058ZM37.1394 75.9548C37.0915 79.823 38.146 83.0721 40.4078 85.3407C42.6706 87.6103 45.997 88.7533 50.194 88.7058L50.1714 86.7059C46.3395 86.7493 43.5986 85.7084 41.8241 83.9286C40.0486 82.1478 39.0959 79.4821 39.1392 75.9795L37.1394 75.9548ZM37.1393 14.3662C37.2305 34.9328 37.3217 55.4915 37.1393 75.9582L39.1393 75.976C39.3218 55.4938 39.2305 34.9216 39.1393 14.3573L37.1393 14.3662ZM43.6021 2.15159C40.8904 3.25344 39.2389 5.03939 38.2931 7.23182C37.3672 9.37831 37.1393 11.8639 37.1393 14.3617H39.1393C39.1393 11.9458 39.3676 9.79041 40.1296 8.024C40.8717 6.30354 42.1398 4.90457 44.355 4.00447L43.6021 2.15159ZM59.9662 4.5104C55.0689 0.212125 49.2684 -0.147265 43.6026 2.15139L44.3545 4.00467C49.4548 1.93544 54.4204 2.30403 58.6469 6.01355L59.9662 4.5104ZM67.465 13.3026C65.2375 10.2389 62.9579 7.09635 59.9605 4.50543L58.6526 6.01852C61.4472 8.43411 63.5977 11.3846 65.8474 14.4787L67.465 13.3026ZM70.3101 17.1091C69.3297 15.867 68.402 14.5913 67.465 13.3026L65.8474 14.4787C66.7806 15.7622 67.7313 17.07 68.7402 18.3482L70.3101 17.1091ZM75.4726 24.0715C73.7565 21.7541 72.0422 19.4391 70.3278 17.1322L68.7225 18.3251C70.4357 20.6305 72.149 22.9441 73.8653 25.2617L75.4726 24.0715ZM75.4861 24.0902L75.4859 24.0899L73.852 25.2433L73.8522 25.2436L75.4861 24.0902ZM87.6585 40.4215C83.5636 34.9973 79.5131 29.5276 75.4728 24.0718L73.8655 25.262C77.9049 30.7166 81.9609 36.1937 86.0623 41.6266L87.6585 40.4215ZM88.0284 40.9317C87.9205 40.7752 87.7886 40.5831 87.6405 40.3983L86.0803 41.6497C86.1754 41.7683 86.2666 41.8998 86.3817 42.0668L88.0284 40.9317ZM88.5789 41.6073C88.4101 41.4726 88.2669 41.2777 88.0284 40.9317L86.3817 42.0668C86.5893 42.3679 86.8921 42.82 87.3316 43.1707L88.5789 41.6073ZM92.061 41.389H87.9552V43.389H92.061V41.389ZM91.1522 40.2053C91.1522 41.1501 91.1489 41.7795 91.0746 42.2242L93.0473 42.5538C93.1554 41.9066 93.1522 41.0802 93.1522 40.2053H91.1522ZM91.1522 40.2051V40.2053H93.1522V40.2051H91.1522ZM91.1522 13.4518V40.2051H93.1522V13.4518H91.1522ZM104.698 0.714117C100.547 0.523798 97.1269 1.54245 94.7409 3.78214C92.3522 6.02443 91.1522 9.34785 91.1522 13.4518H93.1522C93.1522 9.72987 94.2331 7.00196 96.1098 5.24035C97.9892 3.47614 100.819 2.53834 104.606 2.71202L104.698 0.714117ZM117.148 13.8158C117.148 9.69295 116.282 6.49989 114.17 4.27741C112.061 2.0585 108.89 0.995788 104.719 0.71532L104.585 2.71081C108.534 2.97633 111.11 3.96106 112.72 5.65505C114.326 7.34547 115.148 9.93076 115.148 13.8158H117.148ZM441.684 66.5919H444.147V64.5919H441.684V66.5919ZM409.112 66.5919H441.684V64.5919H409.112V66.5919ZM406.74 66.5919H409.112V64.5919H406.74V66.5919ZM405.74 60.587V65.5919H407.74V60.587H405.74ZM405.74 59.4951V60.587H407.74V59.4951H405.74ZM405.74 54.2172V59.4951H407.74V54.2172H405.74ZM409.568 53.2172H406.74V55.2172H409.568V53.2172ZM432.822 53.2173C425.074 53.3082 417.327 53.3082 409.58 53.2173L409.556 55.2171C417.319 55.3082 425.082 55.3082 432.845 55.2171L432.822 53.2173ZM441.652 47.3352C440.436 50.8125 437.008 53.2172 432.834 53.2172V55.2172C437.783 55.2172 442.019 52.3441 443.54 47.9955L441.652 47.3352ZM439.118 37.6878C441.985 40.1386 442.89 43.7952 441.652 47.3352L443.54 47.9955C445.039 43.7098 443.937 39.1766 440.418 36.1676L439.118 37.6878ZM432.377 35.4707C434.959 35.4707 437.251 36.0688 439.113 37.6831L440.423 36.1722C438.087 34.1466 435.27 33.4707 432.377 33.4707V35.4707ZM408.929 35.4707H432.377V33.4707H408.929V35.4707ZM406.74 35.4707H408.929V33.4707H406.74V35.4707ZM405.74 23.096V34.4707H407.74V23.096H405.74ZM409.02 22.096H406.74V24.096H409.02V22.096ZM416.776 22.096H409.02V24.096H416.776V22.096ZM443.863 22.0051C434.837 22.096 425.809 22.096 416.776 22.096V24.096C425.807 24.096 434.845 24.096 443.883 24.005L443.863 22.0051ZM452.938 15.1228C451.956 19.1218 448.622 21.9218 443.856 22.0052L443.891 24.0049C449.525 23.9063 453.673 20.5184 454.881 15.5997L452.938 15.1228ZM442.403 1.71055C446.554 1.75367 449.635 3.21248 451.447 5.51502C453.258 7.81475 453.931 11.1193 452.939 15.1205L454.88 15.6019C455.987 11.1404 455.292 7.1651 453.019 4.27797C450.748 1.39365 447.032 -0.241471 442.424 -0.289344L442.403 1.71055ZM394.605 1.7106H442.414V-0.289398H394.605V1.7106ZM383.653 12.6313C383.653 8.88475 384.634 6.19855 386.393 4.44431C388.152 2.68963 390.847 1.7106 394.605 1.7106V-0.289398C390.517 -0.289398 387.235 0.779019 384.98 3.02823C382.725 5.27789 381.653 8.55204 381.653 12.6313H383.653ZM383.653 44.3895V12.6313H381.653V44.3895H383.653ZM383.653 76.7846V44.3895H381.653V76.7846H383.653ZM393.432 86.8864C390.16 86.8435 387.751 85.8618 386.157 84.202C384.558 82.5382 383.653 80.0622 383.653 76.7846H381.653C381.653 80.4229 382.663 83.4522 384.714 85.5875C386.769 87.727 389.744 88.8382 393.406 88.8862L393.432 86.8864ZM419.197 86.9887C410.602 87.0058 402.043 87.0227 393.435 86.8865L393.403 88.8862C402.032 89.0228 410.609 89.0058 419.201 88.9887L419.197 86.9887ZM419.202 86.9887H419.199V88.9887H419.202V86.9887ZM427.816 86.9773C424.938 86.9773 422.067 86.983 419.2 86.9887L419.204 88.9887C422.072 88.983 424.941 88.9773 427.816 88.9773V86.9773ZM431.322 86.9846C430.155 86.981 428.985 86.9773 427.816 86.9773V88.9773C428.982 88.9773 430.148 88.981 431.316 88.9846L431.322 86.9846ZM431.32 86.9846H431.319V88.9846H431.32V86.9846ZM445.287 86.7964C440.644 87.0135 435.998 86.9992 431.323 86.9846L431.316 88.9846C435.983 88.9991 440.68 89.014 445.38 88.7942L445.287 86.7964ZM453.631 81.3922C452.837 83.2246 451.71 84.5163 450.334 85.378C448.95 86.2447 447.257 86.711 445.29 86.7963L445.377 88.7944C447.606 88.6977 449.654 88.163 451.395 87.0732C453.144 85.9785 454.526 84.3583 455.466 82.1868L453.631 81.3922ZM444.127 66.5917C448.299 66.6766 451.464 68.5335 453.193 71.2279C454.923 73.9224 455.291 77.5705 453.631 81.391L455.465 82.188C457.364 77.8187 457.002 73.459 454.877 70.1476C452.751 66.8362 448.937 64.6892 444.167 64.5921L444.127 66.5917ZM405.185 34.2887V34.1977H403.185V34.2887H405.185ZM403.187 34.5746C403.357 35.1368 403.88 35.2512 403.893 35.2546C403.997 35.282 404.083 35.2859 404.097 35.2867C404.125 35.2883 404.149 35.2886 404.157 35.2886C404.168 35.2887 404.179 35.2887 404.185 35.2887V33.2887C404.154 33.2887 404.182 33.2883 404.211 33.29C404.219 33.2904 404.301 33.2938 404.401 33.3204C404.452 33.3338 404.566 33.3675 404.692 33.4494C404.829 33.5387 405.016 33.7116 405.102 33.997L403.187 34.5746ZM403.445 33.5693C403.444 33.5696 403.442 33.5718 403.44 33.5743C403.437 33.5769 403.432 33.5815 403.427 33.5873C403.418 33.5962 403.394 33.6219 403.365 33.6571C403.343 33.6856 403.279 33.7664 403.227 33.8857C403.175 34.0061 403.092 34.2664 403.189 34.5811L405.1 33.9905C405.197 34.3043 405.114 34.5637 405.062 34.6829C405.01 34.8012 404.948 34.8808 404.926 34.9078C404.884 34.9601 404.839 35.0036 404.857 34.9854L403.445 33.5693ZM403.185 34.1977C403.185 34.0422 403.227 33.8927 403.298 33.7638C403.332 33.7037 403.367 33.6566 403.396 33.6223C403.423 33.59 403.448 33.5662 403.445 33.5691L404.857 34.9856C404.923 34.9192 405.185 34.6513 405.185 34.1977H403.185ZM20.5116 3.1408C15.535 0.0264448 10.16 0.049155 4.9778 2.3463L5.78829 4.17472C10.4598 2.10398 15.121 2.12669 19.4506 4.83618L20.5116 3.1408ZM24.9953 12.75C25.0918 8.9965 24.0221 5.40619 20.5234 3.14827L19.4389 4.82871C22.1443 6.57469 23.0819 9.35421 22.9959 12.6986L24.9953 12.75ZM24.9956 44.9374V12.7243H22.9956V44.9374H24.9956ZM24.9956 75.7856V44.9374H22.9956V75.7856H24.9956ZM11.6445 88.7057C15.8296 88.848 19.2112 87.8319 21.5441 85.5691C23.8764 83.3069 24.9956 79.9585 24.9956 75.7856H22.9956C22.9956 79.6205 21.9707 82.369 20.1516 84.1335C18.3332 85.8973 15.5562 86.8376 11.7124 86.7069L11.6445 88.7057ZM-0.908762 75.7856C-0.908762 79.8435 0.060885 83.0735 2.22394 85.3079C4.38867 87.5441 7.58239 88.6116 11.6553 88.7061L11.7017 86.7066C7.92807 86.6191 5.32818 85.6391 3.66091 83.9169C1.99197 82.1929 1.09124 79.5535 1.09124 75.7856H-0.908762ZM-1 13.9072C-1 34.5633 -1 55.131 -0.908752 75.79L1.09123 75.7812C1 55.1273 1 34.5641 1 13.9072H-1ZM4.98119 2.3448C2.45403 3.45382 0.928123 5.19702 0.0582608 7.27664C-0.794375 9.31507 -1 11.6354 -1 13.9072H1C1 11.7202 1.20495 9.71812 1.90336 8.0484C2.58454 6.41987 3.75015 5.06914 5.78489 4.17621L4.98119 2.3448Z" fill="black" mask="url(#path-1-inside-1_278_55)"/>
</svg>
